<?xml version="1.0" encoding="UTF-8"?>
<svg version="1.1" xmlns="http://www.w3.org/2000/svg" width="812" height="335">
<path d="M0 0 C0.87884857 0.00176239 1.75769714 0.00352478 2.66317749 0.00534058 C16.78043529 0.06834902 29.98198326 1.14353399 43.5 5.5 C44.33176758 5.76232422 45.16353516 6.02464844 46.02050781 6.29492188 C68.49327918 13.56219265 87.85823911 24.92544944 105.5 40.5 C106.35464844 41.22058594 107.20929688 41.94117188 108.08984375 42.68359375 C108.82332031 43.30363281 109.55679687 43.92367187 110.3125 44.5625 C110.93769531 45.08972656 111.56289063 45.61695313 112.20703125 46.16015625 C113.5 47.5 113.5 47.5 113.5 49.5 C114.16 49.5 114.82 49.5 115.5 49.5 C115.5 50.16 115.5 50.82 115.5 51.5 C116.16 51.5 116.82 51.5 117.5 51.5 C119.3136157 53.58731227 121.00992448 55.6821205 122.6875 57.875 C123.14447266 58.45894531 123.60144531 59.04289062 124.07226562 59.64453125 C151.29351233 94.75654156 162.85692875 135.38170177 157.57177734 179.60522461 C156.98587435 183.92356044 156.28201736 188.21317488 155.5 192.5 C155.30664062 193.58539063 155.11328125 194.67078125 154.9140625 195.7890625 C146.9690596 232.41862132 121.82325448 268.77286515 90.63671875 289.53125 C89.60160156 290.1809375 88.56648437 290.830625 87.5 291.5 C86.81244629 291.93570312 86.12489258 292.37140625 85.41650391 292.8203125 C48.62316357 315.84597121 5.75002438 322.52345306 -36.5625 313.375 C-64.80236224 306.80040318 -89.65270181 292.47345935 -110.5 272.5 C-111.04978516 271.99726563 -111.59957031 271.49453125 -112.16601562 270.9765625 C-139.63310697 245.84019104 -156.06935503 208.45358701 -158.10522461 171.39453125 C-159.49487705 140.01135162 -154.68938182 111.26561763 -139.5 83.5 C-138.91089844 82.41847656 -138.32179687 81.33695312 -137.71484375 80.22265625 C-130.35518784 67.19656823 -121.19746003 55.93002353 -110.5 45.5 C-109.91476563 44.86964844 -109.32953125 44.23929688 -108.7265625 43.58984375 C-91.54265504 25.47966618 -68.1027872 13.4659654 -44.4375 6.25 C-43.67147461 6.01579346 -42.90544922 5.78158691 -42.11621094 5.5402832 C-39.58880865 4.80448728 -37.05366741 4.13897775 -34.5 3.5 C-32.87892334 3.09394531 -32.87892334 3.09394531 -31.22509766 2.6796875 C-20.77297255 0.31603557 -10.67769883 -0.05731691 0 0 Z " fill="#010101" transform="translate(164.5,16.5)"/>
<path d="M0 0 C2.2421875 0.875 2.2421875 0.875 3.2421875 1.875 C3.63038157 4.9753067 3.61553502 6.3813095 1.703125 8.91015625 C1.01476562 9.57917969 0.32640625 10.24820313 -0.3828125 10.9375 C-6.07412977 17.02376633 -10.96062492 24.31866499 -11.3828125 32.875 C-11.14574981 35.65922559 -10.74351659 36.89986245 -9.3203125 39.375 C-5.5917662 41.55756369 -2.07516847 42.3666562 2.2421875 41.875 C5.33017424 39.62442433 5.33017424 39.62442433 7.2421875 36.875 C6.83226562 36.41609375 6.42234375 35.9571875 6 35.484375 C5.46117187 34.87078125 4.92234375 34.2571875 4.3671875 33.625 C3.83351562 33.02171875 3.29984375 32.4184375 2.75 31.796875 C0.65785514 29.13020331 -0.57664232 26.75820463 -1.2578125 23.4375 C-0.62662325 20.20265511 0.89865574 18.94845431 3.42822266 16.93774414 C6.52704001 15.1222459 9.70222132 15.17785408 13.1796875 15.3125 C13.88681885 15.32547119 14.5939502 15.33844238 15.32250977 15.35180664 C21.16228814 15.58929502 25.06400976 16.69682226 29.2421875 20.875 C29.69232935 24.74621988 29.38834932 26.60877669 27.4921875 30.0625 C25.53012749 32.51507501 23.86366719 34.18976306 21.2421875 35.875 C22.2321875 37.855 22.2321875 37.855 23.2421875 39.875 C31.1621875 39.38 31.1621875 39.38 39.2421875 38.875 C38.77531996 25.49146399 34.94818034 18.22541343 25.9375 8.41796875 C24.2421875 5.875 24.2421875 5.875 24.421875 3.11328125 C25.2421875 0.875 25.2421875 0.875 26.2421875 -0.125 C28.9296875 -0.6875 28.9296875 -0.6875 32.2421875 -0.125 C34.68712916 2.2382341 36.4091343 5.02569451 38.2421875 7.875 C39.01949219 8.97328125 39.01949219 8.97328125 39.8125 10.09375 C45.75565029 18.57543182 49.0319656 25.36656358 48.2421875 35.875 C48.96921875 35.730625 49.69625 35.58625 50.4453125 35.4375 C65.44847986 32.66768449 65.44847986 32.66768449 72.2421875 33.875 C74.5859375 35.5234375 74.5859375 35.5234375 76.2421875 37.875 C76.5912418 42.16042643 76.03751869 45.04604344 74.20703125 48.90625 C73.7382959 49.91872803 73.26956055 50.93120605 72.78662109 51.97436523 C72.25633301 53.09657471 71.72604492 54.21878418 71.1796875 55.375 C69.99414124 57.93436863 68.82164549 60.49957984 67.65234375 63.06640625 C67.32310913 63.78820572 66.99387451 64.51000519 66.65466309 65.25367737 C60.70357386 78.3888726 55.17894752 91.71540382 49.55880737 104.99462891 C48.55285849 107.37117839 47.54626167 109.74745375 46.53895569 112.12342834 C45.60963976 114.31586961 44.68208201 116.50905724 43.75657654 118.70310974 C41.72070704 123.50709187 39.65873167 128.24962197 37.2421875 132.875 C36.5821875 132.875 35.9221875 132.875 35.2421875 132.875 C35.2421875 133.535 35.2421875 134.195 35.2421875 134.875 C33.68216322 135.0113128 32.11861574 135.10759126 30.5546875 135.1875 C29.24951172 135.27451172 29.24951172 135.27451172 27.91796875 135.36328125 C24.09295441 134.66528593 22.78423488 132.76153043 20.2421875 129.875 C18.91380859 128.45574219 18.91380859 128.45574219 17.55859375 127.0078125 C16.63914132 126.00656879 15.7212029 125.0039329 14.8046875 124 C14.32604248 123.47696289 13.84739746 122.95392578 13.35424805 122.41503906 C9.90404792 118.63204289 6.5371902 114.79338159 3.2421875 110.875 C-2.69025987 112.55482861 -6.90833893 115.6170796 -11.85546875 119.1953125 C-14.91016984 120.96317451 -16.31397867 121.6067421 -19.7578125 120.875 C-25.80662037 115.02962737 -25.35343769 102.81733609 -25.7578125 94.875 C-25.82970428 90.20682686 -25.81914669 85.54321349 -25.7578125 80.875 C-26.40878906 80.63136719 -27.05976562 80.38773437 -27.73046875 80.13671875 C-31.6532167 78.50181864 -35.41615306 76.62797196 -39.1953125 74.6875 C-39.93330078 74.32591797 -40.67128906 73.96433594 -41.43164062 73.59179688 C-46.60943996 70.91775117 -50.56801874 67.82358452 -53.7578125 62.875 C-54.4453125 59.6875 -54.4453125 59.6875 -53.7578125 56.875 C-50.09549243 53.2883477 -47.10944225 52.20667226 -42.1015625 51.390625 C-40.83183594 51.17792969 -39.56210938 50.96523437 -38.25390625 50.74609375 C-37.5976123 50.64409668 -36.94131836 50.54209961 -36.26513672 50.43701172 C-34.26121193 50.1255284 -32.26160666 49.7933738 -30.26171875 49.45703125 C-19.71577261 47.73327762 -19.71577261 47.73327762 -14.7578125 47.875 C-15.11875 47.37613281 -15.4796875 46.87726563 -15.8515625 46.36328125 C-20.17260837 39.67766306 -20.8517288 33.72136326 -19.7578125 25.875 C-18.97612514 23.57926771 -18.0614734 21.69200478 -16.80859375 19.62109375 C-15.5664012 17.69703631 -15.5664012 17.69703631 -14.6328125 14.5625 C-12.42248783 9.29455953 -6.03417917 -0.27350387 0 0 Z " fill="#E6E6E7" transform="translate(150.7578125,130.125)"/>
<path d="M0 0 C0.87884857 0.00176239 1.75769714 0.00352478 2.66317749 0.00534058 C16.78043529 0.06834902 29.98198326 1.14353399 43.5 5.5 C44.33176758 5.76232422 45.16353516 6.02464844 46.02050781 6.29492188 C68.49327918 13.56219265 87.85823911 24.92544944 105.5 40.5 C106.35464844 41.22058594 107.20929688 41.94117188 108.08984375 42.68359375 C108.82332031 43.30363281 109.55679687 43.92367187 110.3125 44.5625 C110.93769531 45.08972656 111.56289063 45.61695313 112.20703125 46.16015625 C113.5 47.5 113.5 47.5 113.5 49.5 C114.16 49.5 114.82 49.5 115.5 49.5 C115.5 50.16 115.5 50.82 115.5 51.5 C116.16 51.5 116.82 51.5 117.5 51.5 C119.3136157 53.58731227 121.00992448 55.6821205 122.6875 57.875 C123.14447266 58.45894531 123.60144531 59.04289062 124.07226562 59.64453125 C151.29351233 94.75654156 162.85692875 135.38170177 157.57177734 179.60522461 C156.98587435 183.92356044 156.28201736 188.21317488 155.5 192.5 C155.30664062 193.58539063 155.11328125 194.67078125 154.9140625 195.7890625 C146.9690596 232.41862132 121.82325448 268.77286515 90.63671875 289.53125 C89.60160156 290.1809375 88.56648437 290.830625 87.5 291.5 C86.81244629 291.93570312 86.12489258 292.37140625 85.41650391 292.8203125 C48.62316357 315.84597121 5.75002438 322.52345306 -36.5625 313.375 C-64.80236224 306.80040318 -89.65270181 292.47345935 -110.5 272.5 C-111.04978516 271.99726563 -111.59957031 271.49453125 -112.16601562 270.9765625 C-139.63310697 245.84019104 -156.06935503 208.45358701 -158.10522461 171.39453125 C-159.49487705 140.01135162 -154.68938182 111.26561763 -139.5 83.5 C-138.91089844 82.41847656 -138.32179687 81.33695312 -137.71484375 80.22265625 C-130.35518784 67.19656823 -121.19746003 55.93002353 -110.5 45.5 C-109.91476563 44.86964844 -109.32953125 44.23929688 -108.7265625 43.58984375 C-91.54265504 25.47966618 -68.1027872 13.4659654 -44.4375 6.25 C-43.67147461 6.01579346 -42.90544922 5.78158691 -42.11621094 5.5402832 C-39.58880865 4.80448728 -37.05366741 4.13897775 -34.5 3.5 C-32.87892334 3.09394531 -32.87892334 3.09394531 -31.22509766 2.6796875 C-20.77297255 0.31603557 -10.67769883 -0.05731691 0 0 Z M-39.5 10.5 C-40.25216797 10.70318848 -41.00433594 10.90637695 -41.77929688 11.11572266 C-49.5992778 13.29268241 -57.245351 15.82775507 -64.5 19.5 C-65.10424805 19.79890137 -65.70849609 20.09780273 -66.33105469 20.40576172 C-76.12125391 25.27311396 -85.01514478 30.53601506 -93.5 37.5 C-94.03077148 37.93070801 -94.56154297 38.36141602 -95.10839844 38.80517578 C-102.59660167 44.89894821 -110.16256068 51.18977089 -116.5 58.5 C-116.5 59.16 -116.5 59.82 -116.5 60.5 C-117.49 60.83 -118.48 61.16 -119.5 61.5 C-121.36352846 63.44621691 -121.36352846 63.44621691 -123.125 65.8125 C-124.04152344 66.98232422 -124.04152344 66.98232422 -124.9765625 68.17578125 C-126.43034982 70.39373883 -126.93441495 71.95761284 -127.5 74.5 C-128.098125 75.03625 -128.69625 75.5725 -129.3125 76.125 C-132.004334 79.04756263 -132.9259195 81.8374974 -134.30078125 85.52734375 C-135.67595955 88.93617334 -137.3161331 92.1749524 -139 95.4375 C-141.99737289 101.32717181 -144.52249002 107.19080148 -146.5 113.5 C-146.84933594 114.60472656 -147.19867188 115.70945312 -147.55859375 116.84765625 C-158.33652665 153.76108944 -152.72253319 192.79875934 -137.5 227.5 C-136.84 228.16 -136.18 228.82 -135.5 229.5 C-134.875 231.625 -134.875 231.625 -134.5 233.5 C-133.84 233.5 -133.18 233.5 -132.5 233.5 C-132.27828125 234.32628906 -132.0565625 235.15257812 -131.828125 236.00390625 C-130.19143496 240.3122521 -127.91703191 243.70314096 -125.25 247.4375 C-124.72422363 248.17677734 -124.19844727 248.91605469 -123.65673828 249.67773438 C-117.91219457 257.57079472 -111.40100501 264.61396927 -104.5 271.5 C-103.68273437 272.32886719 -102.86546875 273.15773438 -102.0234375 274.01171875 C-96.92163055 278.89437592 -91.27386199 282.86896386 -85.4375 286.8125 C-84.69338867 287.31676514 -83.94927734 287.82103027 -83.18261719 288.34057617 C-78.14970742 291.65429627 -73.04075824 294.15886205 -67.5 296.5 C-65.41542315 297.49740519 -63.33197063 298.49716598 -61.25 299.5 C-49.84705511 304.75883206 -37.67965406 307.63023638 -25.5 310.5 C-24.77369385 310.67724609 -24.0473877 310.85449219 -23.29907227 311.03710938 C-19.59560626 311.64956219 -15.92729998 311.70111271 -12.18359375 311.73828125 C-10.97660828 311.75304001 -10.97660828 311.75304001 -9.74523926 311.76809692 C14.649133 312.05784204 14.649133 312.05784204 38.5 307.5 C40.26685835 307.03229237 42.033789 306.56485776 43.80078125 306.09765625 C67.47450422 299.50344378 88.81900978 286.46804706 106.5 269.5 C107.38171875 268.68144531 108.2634375 267.86289062 109.171875 267.01953125 C125.3616477 251.53863278 137.72187877 231.82905654 144.5 210.5 C144.75765137 209.70609863 145.01530273 208.91219727 145.28076172 208.09423828 C155.91626335 174.86551652 156.8467285 140.50777939 144.5 107.5 C144.21157227 106.72446777 143.92314453 105.94893555 143.62597656 105.14990234 C139.99034357 95.13931289 139.99034357 95.13931289 135.5 85.5 C134.84 85.5 134.18 85.5 133.5 85.5 C133.35691406 84.43265625 133.35691406 84.43265625 133.2109375 83.34375 C127.4944518 60.47780721 97.10086648 38.2725559 78.37036133 26.60180664 C75.80207157 25.08885902 73.16447408 23.75920387 70.48242188 22.46069336 C69.1988987 21.83869044 67.92335369 21.19982899 66.65820312 20.54125977 C61.89137863 18.06546239 57.10477554 16.15759975 52 14.5 C51.22245361 14.24581299 50.44490723 13.99162598 49.64379883 13.72973633 C21.40974498 4.66033813 -10.66147512 2.70563596 -39.5 10.5 Z " fill="#E2CFA3" transform="translate(164.5,16.5)"/>
<path d="M0 0 C1.31707947 -0.02567047 2.63415894 -0.05134094 3.9911499 -0.07778931 C5.4240972 -0.09415521 6.8570621 -0.10903663 8.29003906 -0.12255859 C9.02436409 -0.13070965 9.75868912 -0.1388607 10.51526642 -0.14725876 C14.42260072 -0.18893956 18.32979658 -0.21752966 22.23730469 -0.23632812 C25.41454301 -0.25383932 28.58997133 -0.29507208 31.76660156 -0.359375 C52.3033628 -0.76588056 69.96087034 0.5452224 89.30566406 8.35400391 C90.39713745 8.7870282 91.48861084 9.22005249 92.61315918 9.66619873 C101.02165456 13.0699944 101.02165456 13.0699944 103.30566406 15.35400391 C103.93064995 19.78399503 102.51498809 22.22390629 100.16503906 25.91650391 C99.50632813 26.96064453 98.84761719 28.00478516 98.16894531 29.08056641 C97.4715625 30.16080078 96.77417969 31.24103516 96.05566406 32.35400391 C95.37375 33.43423828 94.69183594 34.51447266 93.98925781 35.62744141 C87.49742663 45.83789433 87.49742663 45.83789433 84.30566406 49.35400391 C80.80566406 49.97900391 80.80566406 49.97900391 77.30566406 49.35400391 C72.70740092 45.31310599 70.14335739 38.71480464 67.30566406 33.35400391 C66.58557836 32.02649215 65.86415865 30.69970337 65.14160156 29.37353516 C64.4044238 28.01296565 63.66744297 26.65228944 62.93066406 25.29150391 C62.57262695 24.63617676 62.21458984 23.98084961 61.84570312 23.30566406 C59.30566406 18.58119141 59.30566406 18.58119141 59.30566406 16.35400391 C58.64566406 16.35400391 57.98566406 16.35400391 57.30566406 16.35400391 C54.30566406 10.60400391 54.30566406 10.60400391 54.30566406 8.35400391 C51.33566406 8.35400391 48.36566406 8.35400391 45.30566406 8.35400391 C45.31726563 9.13646484 45.32886719 9.91892578 45.34082031 10.72509766 C45.34984375 11.73701172 45.35886719 12.74892578 45.36816406 13.79150391 C45.37976563 14.80083984 45.39136719 15.81017578 45.40332031 16.85009766 C45.30566406 19.35400391 45.30566406 19.35400391 44.30566406 20.35400391 C41.86816406 20.54150391 41.86816406 20.54150391 39.30566406 20.35400391 C37.30566406 18.35400391 37.30566406 18.35400391 37.11035156 15.97119141 C37.13355469 15.06626953 37.15675781 14.16134766 37.18066406 13.22900391 C37.19871094 12.31892578 37.21675781 11.40884766 37.23535156 10.47119141 C37.25855469 9.77251953 37.28175781 9.07384766 37.30566406 8.35400391 C35.98566406 8.35400391 34.66566406 8.35400391 33.30566406 8.35400391 C33.31090088 8.98491943 33.3161377 9.61583496 33.3215332 10.26586914 C33.34224233 13.10773738 33.35530472 15.94958978 33.36816406 18.79150391 C33.37654297 19.78472656 33.38492188 20.77794922 33.39355469 21.80126953 C33.39677734 22.74550781 33.4 23.68974609 33.40332031 24.66259766 C33.40855713 25.537146 33.41379395 26.41169434 33.41918945 27.31274414 C33.30566406 29.35400391 33.30566406 29.35400391 32.30566406 30.35400391 C29.86816406 30.54150391 29.86816406 30.54150391 27.30566406 30.35400391 C25.30566406 28.35400391 25.30566406 28.35400391 25.07861328 26.29101562 C25.08908691 25.46359863 25.09956055 24.63618164 25.11035156 23.78369141 C25.11679688 22.88779297 25.12324219 21.99189453 25.12988281 21.06884766 C25.15501953 19.663125 25.15501953 19.663125 25.18066406 18.22900391 C25.1896875 17.28412109 25.19871094 16.33923828 25.20800781 15.36572266 C25.23161884 13.02823099 25.2645489 10.69124267 25.30566406 8.35400391 C23.65566406 8.35400391 22.00566406 8.35400391 20.30566406 8.35400391 C20.32886719 9.12486328 20.35207031 9.89572266 20.37597656 10.68994141 C20.39402344 11.69283203 20.41207031 12.69572266 20.43066406 13.72900391 C20.45386719 14.72673828 20.47707031 15.72447266 20.50097656 16.75244141 C20.30566406 19.35400391 20.30566406 19.35400391 18.30566406 21.35400391 C13.75010851 20.79844835 13.75010851 20.79844835 12.30566406 19.35400391 C12.23339905 17.50112889 12.22185186 15.64566513 12.24316406 13.79150391 C12.2521875 12.77958984 12.26121094 11.76767578 12.27050781 10.72509766 C12.28210938 9.94263672 12.29371094 9.16017578 12.30566406 8.35400391 C8.25480727 8.60031948 8.25480727 8.60031948 4.30566406 9.35400391 C2.71572076 11.27465184 2.71572076 11.27465184 2.30566406 13.35400391 C1.64566406 13.35400391 0.98566406 13.35400391 0.30566406 13.35400391 C-0.09966553 14.67174805 -0.09966553 14.67174805 -0.51318359 16.01611328 C-1.63057298 19.17381227 -2.93951849 21.8548822 -4.59277344 24.76025391 C-5.15480469 25.75154297 -5.71683594 26.74283203 -6.29589844 27.76416016 C-7.17375 29.29363281 -7.17375 29.29363281 -8.06933594 30.85400391 C-8.93558594 32.38347656 -8.93558594 32.38347656 -9.81933594 33.94384766 C-17.14380252 46.80347048 -17.14380252 46.80347048 -19.69433594 49.35400391 C-24.95071892 49.93804646 -24.95071892 49.93804646 -27.51464844 47.92431641 C-30.68718741 44.18322206 -33.1820706 40.08351677 -35.75683594 35.91650391 C-36.55057617 34.64709961 -36.55057617 34.64709961 -37.36035156 33.35205078 C-38.3743181 31.72741431 -39.38375261 30.0999377 -40.38793945 28.46923828 C-41.42102459 26.79653232 -42.47574548 25.13719032 -43.53808594 23.48291016 C-45.26375236 20.30558515 -45.15291872 17.89164251 -44.69433594 14.35400391 C-41.3900789 10.97349479 -37.06031045 10.10906599 -32.63183594 8.91650391 C-26.68690231 7.24680639 -20.86652607 5.44199208 -15.08886719 3.24853516 C-14.29867187 2.95333984 -13.50847656 2.65814453 -12.69433594 2.35400391 C-11.79301941 2.01285553 -10.89170288 1.67170715 -9.96307373 1.32022095 C-6.494363 0.29489324 -3.61116535 0.06172797 0 0 Z " fill="#E2E2E3" transform="translate(135.6943359375,84.64599609375)"/>
<path d="M0 0 C-0.61999779 3.68086842 -1.65069263 6.82623611 -3.14550781 10.24243164 C-3.81190277 11.77541649 -3.81190277 11.77541649 -4.49176025 13.33937073 C-4.97401062 14.43522995 -5.45626099 15.53108917 -5.953125 16.66015625 C-6.45036072 17.80101181 -6.94759644 18.94186737 -7.4598999 20.11729431 C-8.78282998 23.1506291 -10.10988043 26.18208845 -11.43914795 29.21264648 C-13.29675196 33.45052849 -15.14654067 37.69182935 -16.99725342 41.932724 C-17.98075178 44.1851693 -18.96572459 46.43697162 -19.95245361 48.68800354 C-24.50786073 59.09813203 -28.88549245 69.5523187 -32.88671875 80.1875 C-33.81747639 82.53888773 -34.82314607 84.76451491 -36 87 C-40.444286 86.74766874 -42.42738293 84.93493763 -45.34985352 81.69726562 C-46.10480103 80.82618164 -46.10480103 80.82618164 -46.875 79.9375 C-47.40601318 79.34259766 -47.93702637 78.74769531 -48.48413086 78.13476562 C-49.99990984 76.43209074 -51.50101056 74.71744846 -53 73 C-53.64324219 72.27941406 -54.28648437 71.55882812 -54.94921875 70.81640625 C-56.65499655 68.89585739 -58.32744514 66.9495608 -60 65 C-60.94393342 63.92180759 -61.88795145 62.84368925 -62.83203125 61.765625 C-63.84680613 60.59414135 -64.86112749 59.4222647 -65.875 58.25 C-66.36427979 57.69441406 -66.85355957 57.13882813 -67.35766602 56.56640625 C-69.78324504 53.74005707 -71.27960557 51.64411767 -72 48 C-70.90051025 47.37508667 -70.90051025 47.37508667 -69.77880859 46.73754883 C-54.45087448 38.01920352 -39.1399254 29.27706486 -24.02246094 20.19628906 C-22.34622658 19.20479361 -20.6393943 18.26523835 -18.92578125 17.33984375 C-18.29027344 16.89769531 -17.65476562 16.45554688 -17 16 C-16.49957854 12.91538029 -16.49957854 12.91538029 -17 10 C-18.03554439 8.7462752 -18.03554439 8.7462752 -20.29052734 8.83520508 C-23.0650714 9.00395776 -24.81914107 9.5328642 -27.3515625 10.63671875 C-31.62837355 12.4351929 -35.93035673 14.13844096 -40.2734375 15.76953125 C-40.92166473 16.01364746 -41.56989197 16.25776367 -42.23776245 16.50927734 C-44.28293044 17.27856728 -46.32885842 18.04580361 -48.375 18.8125 C-49.07743835 19.07601257 -49.77987671 19.33952515 -50.50360107 19.61102295 C-72.1839018 27.73751361 -72.1839018 27.73751361 -83.17651367 31.3581543 C-85.23216883 32.0492005 -85.23216883 32.0492005 -88.02734375 33.40234375 C-92.46017869 34.29357075 -95.09066167 32.55926608 -98.9375 30.4375 C-99.61490234 30.08880859 -100.29230469 29.74011719 -100.99023438 29.38085938 C-105.61638849 26.94580798 -109.88304733 24.22593032 -114 21 C-114 20.34 -114 19.68 -114 19 C-112.94039063 18.79503906 -111.88078125 18.59007812 -110.7890625 18.37890625 C-109.40101178 18.10692334 -108.01299256 17.83477956 -106.625 17.5625 C-105.92632812 17.42779297 -105.22765625 17.29308594 -104.5078125 17.15429688 C-100.64371266 16.4227578 -100.64371266 16.4227578 -97 15 C-94.92881764 14.6729615 -92.85031858 14.39180024 -90.76953125 14.1328125 C-89.49779053 13.97071289 -88.2260498 13.80861328 -86.91577148 13.64160156 C-86.24456268 13.55720825 -85.57335388 13.47281494 -84.88180542 13.38586426 C-74.74688295 12.10821863 -64.6863117 10.78791103 -54.71484375 8.515625 C-52.05612061 8.01065888 -49.69831492 7.8268461 -47 8 C-46.505 8.495 -46.505 8.495 -46 9 C-38.17440553 9.69182792 -32.42733965 9.64956485 -26 5 C-23.18598646 3.40610121 -20.74953495 2.63474741 -17.55859375 2.1484375 C-16.72779297 2.01953125 -15.89699219 1.890625 -15.04101562 1.7578125 C-13.75227539 1.56832031 -13.75227539 1.56832031 -12.4375 1.375 C-11.57447266 1.2409375 -10.71144531 1.106875 -9.82226562 0.96875 C-6.50179564 0.46306848 -3.36445737 0 0 0 Z " fill="#050505" transform="translate(219,171)"/>
<path d="M0 0 C4.80542777 3.12444163 8.6815316 7.69074104 10.0546875 13.3359375 C9.6796875 15.6484375 9.6796875 15.6484375 9.0546875 17.3359375 C5.0946875 17.8309375 5.0946875 17.8309375 1.0546875 18.3359375 C0.75175781 17.79324219 0.44882812 17.25054687 0.13671875 16.69140625 C-0.28222656 15.97597656 -0.70117188 15.26054687 -1.1328125 14.5234375 C-1.53886719 13.81574219 -1.94492187 13.10804688 -2.36328125 12.37890625 C-5.15374754 8.77541521 -7.78368343 7.48674549 -12.28515625 6.90234375 C-19.63341649 6.8449718 -19.63341649 6.8449718 -26.5703125 8.9609375 C-32.28536177 14.67598677 -34.93486785 20.63732128 -35.2578125 28.7109375 C-35.10452512 34.68914532 -33.801303 40.2678338 -29.7578125 44.7734375 C-28.860625 45.546875 -28.860625 45.546875 -27.9453125 46.3359375 C-27.9453125 46.9959375 -27.9453125 47.6559375 -27.9453125 48.3359375 C-17.6399134 51.00770764 -10.61397795 51.02891547 -0.9453125 46.3359375 C0.71811587 44.67250913 0.41516847 42.5533666 0.6171875 40.2734375 C0.7615625 38.6440625 0.9059375 37.0146875 1.0546875 35.3359375 C-4.8853125 35.3359375 -10.8253125 35.3359375 -16.9453125 35.3359375 C-16.9453125 28.3359375 -16.9453125 28.3359375 -15.9453125 27.3359375 C-13.94566268 27.24835747 -11.9429514 27.22897174 -9.94140625 27.23828125 C-8.72646484 27.24150391 -7.51152344 27.24472656 -6.25976562 27.24804688 C-4.98037109 27.25642578 -3.70097656 27.26480469 -2.3828125 27.2734375 C-1.09955078 27.27794922 0.18371094 27.28246094 1.50585938 27.28710938 C4.68884772 27.29894205 7.87174512 27.31542682 11.0546875 27.3359375 C11.34629161 31.20933729 11.52301447 35.0799227 11.6796875 38.9609375 C11.76347656 40.05535156 11.84726562 41.14976562 11.93359375 42.27734375 C12.03329231 45.56739616 11.98819833 48.17423696 11.0546875 51.3359375 C8.07387799 54.21474212 4.86190148 55.7749618 1.0546875 57.3359375 C-0.10595215 57.85232788 -0.10595215 57.85232788 -1.29003906 58.37915039 C-9.31731858 61.77231929 -18.57650599 61.40597996 -26.7578125 58.7734375 C-35.33373834 55.1907727 -40.15164048 50.027401 -44.03515625 41.66796875 C-47.65394538 32.39579231 -46.7284004 22.25364816 -43.26953125 13.06640625 C-39.68663454 5.67866348 -34.54471334 1.26005478 -26.9453125 -1.6640625 C-18.77761943 -4.38662686 -7.7432249 -3.67607647 0 0 Z " fill="#FFC300" transform="translate(568.9453125,140.6640625)"/>
<path d="M0 0 C0.84820313 0.17144531 1.69640625 0.34289062 2.5703125 0.51953125 C4.875 1.1875 4.875 1.1875 7.875 3.1875 C7.875 3.8475 7.875 4.5075 7.875 5.1875 C8.3596875 4.83816406 8.844375 4.48882812 9.34375 4.12890625 C15.56277176 -0.09285275 20.02371493 -1.45438085 27.625 -0.1875 C31.331395 1.38059019 32.73872518 2.81875894 34.875 6.1875 C36.12782725 9.94598174 35.99881835 13.44240919 35.97265625 17.35546875 C35.9712413 18.15028152 35.96982635 18.9450943 35.96836853 19.76399231 C35.96277378 22.30103325 35.95022228 24.83798575 35.9375 27.375 C35.93248432 29.09570185 35.92792153 30.81640508 35.92382812 32.53710938 C35.91280607 36.7539403 35.89554506 40.97070516 35.875 45.1875 C32.905 45.1875 29.935 45.1875 26.875 45.1875 C26.845271 43.7648584 26.845271 43.7648584 26.81494141 42.31347656 C26.73674239 38.78717636 26.65004634 35.26129639 26.55761719 31.73535156 C26.51938734 30.21069342 26.484524 28.68594693 26.453125 27.16113281 C26.40734338 24.96647619 26.34937234 22.7724246 26.2890625 20.578125 C26.27751129 19.8988092 26.26596008 19.21949341 26.25405884 18.51959229 C26.14265084 14.9291264 25.81541624 12.25131512 23.875 9.1875 C18.61172544 8.68351593 18.61172544 8.68351593 13.9375 10.5 C11.59427843 14.2215872 11.68513849 17.75852548 11.55859375 22.04296875 C11.53781265 22.70460526 11.51703156 23.36624176 11.49562073 24.04792786 C11.43035273 26.15684852 11.37134656 28.26589135 11.3125 30.375 C11.26929311 31.80665315 11.22567812 33.23829404 11.18164062 34.66992188 C11.07469494 38.17565154 10.97336359 41.68151786 10.875 45.1875 C7.905 45.1875 4.935 45.1875 1.875 45.1875 C1.84994385 44.23907227 1.8248877 43.29064453 1.79907227 42.31347656 C1.7038116 38.78731968 1.60458559 35.26132041 1.50268555 31.73535156 C1.45943293 30.21065614 1.41775115 28.68591531 1.37768555 27.16113281 C1.31974797 24.96665778 1.25612205 22.77240932 1.19140625 20.578125 C1.17469376 19.8988092 1.15798126 19.21949341 1.14076233 18.51959229 C1.03992528 15.28211448 0.84360824 12.28980396 -0.125 9.1875 C-6.05898077 8.75465881 -6.05898077 8.75465881 -11.625 10.4375 C-14.6864636 14.00920754 -14.30233322 18.3920677 -14.44140625 22.921875 C-14.48330078 24.21738281 -14.52519531 25.51289063 -14.56835938 26.84765625 C-14.60816671 28.21093476 -14.64787906 29.57421606 -14.6875 30.9375 C-14.73072274 32.31641875 -14.77433821 33.69532526 -14.81835938 35.07421875 C-14.92443958 38.4452119 -15.0264985 41.81627826 -15.125 45.1875 C-18.095 45.1875 -21.065 45.1875 -24.125 45.1875 C-24.125 30.3375 -24.125 15.4875 -24.125 0.1875 C-21.485 0.1875 -18.845 0.1875 -16.125 0.1875 C-15.795 1.1775 -15.465 2.1675 -15.125 3.1875 C-14.0421875 2.4759375 -14.0421875 2.4759375 -12.9375 1.75 C-8.43847909 -0.74945606 -5.00057281 -1.06281287 0 0 Z " fill="#FFC300" transform="translate(686.125,154.8125)"/>
<path d="M0 0 C0.33 0.99 0.66 1.98 1 3 C2.24873901 2.98428955 2.24873901 2.98428955 3.52270508 2.96826172 C6.61449156 2.93415558 9.70618208 2.90908924 12.7980957 2.89013672 C14.79319618 2.87514505 16.78820946 2.84973269 18.78320312 2.82421875 C20.66362305 2.81455078 20.66362305 2.81455078 22.58203125 2.8046875 C23.73936768 2.79421387 24.8967041 2.78374023 26.08911133 2.77294922 C29 3 29 3 32 5 C30.34738159 4.9685791 30.34738159 4.9685791 28.66137695 4.93652344 C-0.45298137 4.09824803 -0.45298137 4.09824803 -29 9 C-29.74056641 9.20318848 -30.48113281 9.40637695 -31.24414062 9.61572266 C-39.07834705 11.79283974 -46.73237201 14.32118521 -54 18 C-54.60424805 18.29890137 -55.20849609 18.59780273 -55.83105469 18.90576172 C-65.62087004 23.77292311 -74.51639456 29.03499419 -83 36 C-83.53608887 36.43602539 -84.07217773 36.87205078 -84.62451172 37.32128906 C-102.44703775 51.7260382 -102.44703775 51.7260382 -115.5703125 70.14453125 C-116.87630359 72.75294515 -117.97407744 74.01303749 -120 76 C-120.97225613 78.01727635 -120.97225613 78.01727635 -121.75 80.3125 C-123.40577529 84.68119943 -125.36326089 88.78272951 -127.5 92.9375 C-130.49708156 98.82736184 -133.02247033 104.69073867 -135 111 C-135.34933594 112.10472656 -135.69867188 113.20945312 -136.05859375 114.34765625 C-144.94258047 144.77449722 -142.46755577 177.12876795 -133 207 C-132.31722872 209.32912655 -131.65680256 211.6633568 -131 214 C-134.37362116 211.54645733 -134.69133551 208.6305293 -135.375 204.7421875 C-135.58125 204.16726562 -135.7875 203.59234375 -136 203 C-136.99 202.67 -137.98 202.34 -139 202 C-139.94921875 199.85546875 -139.94921875 199.85546875 -140.6875 197.1875 C-140.93886719 196.31480469 -141.19023437 195.44210938 -141.44921875 194.54296875 C-142 192 -142 192 -142 188 C-142.99 188 -143.98 188 -145 188 C-146.71935028 180.65543933 -147.43806491 173.53036946 -147.6875 166 C-147.72512451 164.90276611 -147.76274902 163.80553223 -147.80151367 162.67504883 C-148.64594381 133.54965363 -143.03765169 106.66029835 -129 81 C-128.41089844 79.91847656 -127.82179688 78.83695312 -127.21484375 77.72265625 C-119.85518784 64.69656823 -110.69746003 53.43002353 -100 43 C-99.41476563 42.36964844 -98.82953125 41.73929688 -98.2265625 41.08984375 C-85.72513923 27.91455193 -69.73962343 17.9029375 -53 11 C-53 11.66 -53 12.32 -53 13 C-51.906875 12.55269531 -50.81375 12.10539062 -49.6875 11.64453125 C-40.40969434 7.97331791 -31.21879994 5.13480391 -21.4375 3.125 C-20.45201172 2.92237549 -19.46652344 2.71975098 -18.45117188 2.51098633 C-12.32145549 1.31225634 -6.22489424 0.50221354 0 0 Z " fill="#BF9E58" transform="translate(154,19)"/>
<path d="M0 0 C1.37478516 0.01740234 1.37478516 0.01740234 2.77734375 0.03515625 C3.69644531 0.04417969 4.61554687 0.05320313 5.5625 0.0625 C6.27277344 0.07410156 6.98304688 0.08570313 7.71484375 0.09765625 C11.75172107 9.76539845 15.78386494 19.43509275 19.80699158 29.10856628 C21.30530306 32.71116817 22.804184 36.313514 24.30859375 39.91357422 C25.59478926 42.99374451 26.8747336 46.07641754 28.15234375 49.16015625 C28.52286865 50.0433252 28.89339355 50.92649414 29.27514648 51.83642578 C29.76930054 53.03501221 29.76930054 53.03501221 30.2734375 54.2578125 C30.55501709 54.93465088 30.83659668 55.61148926 31.12670898 56.30883789 C31.71484375 58.09765625 31.71484375 58.09765625 31.71484375 61.09765625 C28.08484375 61.09765625 24.45484375 61.09765625 20.71484375 61.09765625 C19.70847825 58.66261116 18.70957962 56.22494761 17.71484375 53.78515625 C17.42867187 53.09486328 17.1425 52.40457031 16.84765625 51.69335938 C15.62573631 48.68219951 14.71484375 46.37878641 14.71484375 43.09765625 C6.79484375 43.09765625 -1.12515625 43.09765625 -9.28515625 43.09765625 C-9.61515625 45.07765625 -9.94515625 47.05765625 -10.28515625 49.09765625 C-11.08186749 51.24485836 -11.9370375 53.37122836 -12.84765625 55.47265625 C-13.30269531 56.53226563 -13.75773438 57.591875 -14.2265625 58.68359375 C-14.57589844 59.48023438 -14.92523437 60.276875 -15.28515625 61.09765625 C-18.58515625 61.09765625 -21.88515625 61.09765625 -25.28515625 61.09765625 C-24.68009895 56.6150774 -23.53070988 52.74505515 -21.87890625 48.5390625 C-21.51766411 47.61197227 -21.51766411 47.61197227 -21.14912415 46.66615295 C-20.36666582 44.66193758 -19.57608544 42.66104206 -18.78515625 40.66015625 C-18.24258445 39.27607411 -17.70051496 37.89179497 -17.15893555 36.50732422 C-16.06505934 33.71321243 -14.9680409 30.92036518 -13.86865234 28.12841797 C-12.4080033 24.41584733 -10.96339903 20.69721173 -9.5234375 16.9765625 C-8.71490385 14.89190377 -7.9063139 12.80726688 -7.09765625 10.72265625 C-6.72382812 9.75529541 -6.35 8.78793457 -5.96484375 7.79125977 C-5.62324219 6.91526123 -5.28164063 6.0392627 -4.9296875 5.13671875 C-4.63425049 4.37568848 -4.33881348 3.6146582 -4.03442383 2.83056641 C-2.94319433 0.30676486 -2.83313672 0.12107422 0 0 Z M2.71484375 12.09765625 C2.4725 12.70351562 2.23015625 13.309375 1.98046875 13.93359375 C1.6453125 14.77148438 1.31015625 15.609375 0.96484375 16.47265625 C0.60390625 17.37757813 0.24296875 18.2825 -0.12890625 19.21484375 C-0.89254705 21.11878602 -1.66325505 23.01991075 -2.44140625 24.91796875 C-2.80234375 25.80226562 -3.16328125 26.6865625 -3.53515625 27.59765625 C-3.8703125 28.41234375 -4.20546875 29.22703125 -4.55078125 30.06640625 C-5.39848957 32.05114362 -5.39848957 32.05114362 -5.28515625 34.09765625 C-0.00515625 34.09765625 5.27484375 34.09765625 10.71484375 34.09765625 C9.04901171 26.52569241 6.38778218 19.36151947 3.71484375 12.09765625 C3.38484375 12.09765625 3.05484375 12.09765625 2.71484375 12.09765625 Z " fill="#FFC300" transform="translate(751.28515625,138.90234375)"/>
<path d="M0 0 C2.87917623 3.88503399 3.39314232 6.7615815 3.4765625 11.55078125 C3.5075 12.80697266 3.5384375 14.06316406 3.5703125 15.35742188 C3.58835937 16.66259766 3.60640625 17.96777344 3.625 19.3125 C3.80514411 30.69527207 3.80514411 30.69527207 5 42 C3.54257537 42.08096803 2.08387193 42.13917774 0.625 42.1875 C-0.18710937 42.22230469 -0.99921875 42.25710937 -1.8359375 42.29296875 C-2.55007813 42.19628906 -3.26421875 42.09960938 -4 42 C-4.66 41.01 -5.32 40.02 -6 39 C-6.52207031 39.28875 -7.04414063 39.5775 -7.58203125 39.875 C-13.77139988 42.99678313 -19.10420568 43.89805693 -26 43 C-29.6827886 41.61895428 -32.54036285 40.10691008 -35 37 C-36.35698258 32.92905226 -36.52387231 29.25646256 -36 25 C-33.73347208 20.46694416 -31.53778978 18.15778921 -27 16 C-23.42196252 15.21789116 -19.82077746 14.75903444 -16.1875 14.3125 C-15.20845703 14.18294922 -14.22941406 14.05339844 -13.22070312 13.91992188 C-10.81493629 13.60306478 -8.40831136 13.29678437 -6 13 C-7.09207017 8.61832226 -7.09207017 8.61832226 -10.125 5.5625 C-13.95184234 4.81376998 -17.24811375 4.89327205 -21 6 C-23.38312703 7.89428046 -24.6500559 9.30011179 -26 12 C-28.97 11.67 -31.94 11.34 -35 11 C-34.46450888 6.44832549 -32.91384 3.52728 -30 0 C-21.04196161 -4.90156818 -8.75214496 -5.9770746 0 0 Z M-16 22.3125 C-17.2375 22.55613281 -18.475 22.79976562 -19.75 23.05078125 C-22.85048652 23.956332 -24.17738243 24.3971972 -26 27 C-26.5 29.5 -26.5 29.5 -26 32 C-24.4207199 34.05158817 -23.50529661 34.89316586 -20.94921875 35.43359375 C-15.48795831 35.44302598 -12.26323049 34.74332433 -8 31 C-5.64264672 27.78542734 -5.82257311 24.90339153 -6 21 C-9.49036131 21 -12.57841587 21.61749072 -16 22.3125 Z " fill="#FFC200" transform="translate(424,158)"/>
<path d="M0 0 C1.33325821 -0.00110275 1.33325821 -0.00110275 2.69345093 -0.00222778 C16.90261974 0.02863634 30.14083935 1.05166094 43.75 5.4375 C44.58176758 5.69982422 45.41353516 5.96214844 46.27050781 6.23242188 C68.74327918 13.49969265 88.10823911 24.86294944 105.75 40.4375 C106.60464844 41.15808594 107.45929688 41.87867188 108.33984375 42.62109375 C109.07332031 43.24113281 109.80679688 43.86117187 110.5625 44.5 C111.18769531 45.02722656 111.81289063 45.55445313 112.45703125 46.09765625 C113.75 47.4375 113.75 47.4375 113.75 49.4375 C114.41 49.4375 115.07 49.4375 115.75 49.4375 C115.75 50.0975 115.75 50.7575 115.75 51.4375 C116.41 51.4375 117.07 51.4375 117.75 51.4375 C119.56399513 53.52524895 121.26094546 55.61815702 122.9375 57.8125 C123.43000244 58.45010254 123.92250488 59.08770508 124.42993164 59.74462891 C138.99360959 78.71005996 138.99360959 78.71005996 140.25 86.5625 C140.57227035 89.61331858 140.57227035 89.61331858 142.75 92.3125 C145.31835179 96.32554967 145.59697562 98.69374426 145.75 103.4375 C144.7578125 105.6796875 144.7578125 105.6796875 143.75 107.4375 C142.60017194 104.52239248 141.45584512 101.60515566 140.3125 98.6875 C139.98701172 97.8625 139.66152344 97.0375 139.32617188 96.1875 C139.01357422 95.38828125 138.70097656 94.5890625 138.37890625 93.765625 C138.09088135 93.0324707 137.80285645 92.29931641 137.50610352 91.54394531 C136.78135375 89.5248491 136.2310009 87.52665413 135.75 85.4375 C135.09 85.4375 134.43 85.4375 133.75 85.4375 C133.34652344 84.41914062 132.94304687 83.40078125 132.52734375 82.3515625 C130.88377755 78.53096671 128.75080109 75.17182933 126.3125 71.8125 C125.88146973 71.21421387 125.45043945 70.61592773 125.00634766 69.99951172 C120.47694623 63.85212091 115.38393326 58.29092498 110.07519531 52.81396484 C108.95531544 51.65075874 107.86129731 50.46273717 106.7734375 49.26953125 C96.86372748 38.68316703 83.75905896 29.70751293 70.734375 23.39868164 C69.4448411 22.77406366 68.16291528 22.1333969 66.890625 21.47436523 C59.15970621 17.47413388 51.06026418 14.95812709 42.75 12.4375 C41.8518457 12.1605127 40.95369141 11.88352539 40.02832031 11.59814453 C23.60274213 6.64871534 7.86418633 5.41078294 -9.25 5.4375 C-9.745 4.4475 -9.745 4.4475 -10.25 3.4375 C-26.67586326 5.51708712 -42.3057135 8.08178718 -57.67578125 14.484375 C-60.25 15.4375 -60.25 15.4375 -63.25 15.4375 C-63.25 14.7775 -63.25 14.1175 -63.25 13.4375 C-55.90926353 10.00270406 -48.46513276 7.481668 -40.6875 5.25 C-39.82616455 5.00040527 -38.9648291 4.75081055 -38.07739258 4.49365234 C-35.47741137 3.76429036 -32.87126609 3.08606827 -30.25 2.4375 C-29.44997559 2.23809814 -28.64995117 2.03869629 -27.82568359 1.83325195 C-18.65810363 -0.14262658 -9.33447403 -0.00334689 0 0 Z " fill="#C8B16E" transform="translate(164.25,16.5625)"/>
<path d="M0 0 C1.98821593 3.87536529 2.28379912 7.2318166 2.37890625 11.55078125 C2.41306641 12.80697266 2.44722656 14.06316406 2.48242188 15.35742188 C2.50884766 16.66259766 2.53527344 17.96777344 2.5625 19.3125 C2.79207697 30.69472622 2.79207697 30.69472622 4 42 C1.36 42 -1.28 42 -4 42 C-4.495 40.02 -4.495 40.02 -5 38 C-6.60875 38.9590625 -6.60875 38.9590625 -8.25 39.9375 C-13.88142495 43.29469564 -19.54330911 43.68729393 -26 43 C-30.44100792 41.6938212 -33.23713817 39.99403208 -36.0625 36.3125 C-37.3115767 31.89909565 -37.27175193 28.40768683 -36 24 C-32.69915549 18.59861808 -28.9009751 16.71258583 -23 15 C-20.01137808 14.43383755 -17.02696271 14.09840896 -14 13.8125 C-12.83791016 13.6897168 -12.83791016 13.6897168 -11.65234375 13.56445312 C-9.76919817 13.36683908 -7.88471423 13.18204626 -6 13 C-6.80995828 10.03316324 -6.80995828 10.03316324 -8 7 C-12.80327185 4.36963685 -16.83032349 4.89826566 -22 6 C-24.64365079 7.87613927 -24.95241281 8.85723843 -26 12 C-28.97 11.67 -31.94 11.34 -35 11 C-34.93338247 7.66912357 -34.74686878 5.01491678 -32.7265625 2.26953125 C-24.57286979 -5.48221886 -9.21869617 -6.6185511 0 0 Z M-17.0625 22.25 C-18.29097656 22.48203125 -19.51945313 22.7140625 -20.78515625 22.953125 C-24.25916004 24.08439234 -25.34741209 24.79239395 -27 28 C-27.00635246 30.63537508 -27.00635246 30.63537508 -26 33 C-22.29017554 35.4732163 -19.30111858 35.54710902 -15 35 C-11.32751622 33.36778499 -8.95773862 31.52392951 -7 28 C-6.27518916 24.34725531 -6.27518916 24.34725531 -6 21 C-9.90767417 21 -13.23654797 21.49366038 -17.0625 22.25 Z " fill="#FFC200" transform="translate(650,158)"/>
<path d="M0 0 C4.87357704 4.09823524 8.38729269 7.9944934 9.75 14.3125 C9.75 17.2825 9.75 20.2525 9.75 23.3125 C-0.81 23.3125 -11.37 23.3125 -22.25 23.3125 C-19.27644699 31.71528034 -19.27644699 31.71528034 -15.875 34.375 C-12.0351635 35.74637018 -8.97883753 35.80645358 -5.0625 34.6875 C-2.45378986 32.70847852 -1.53585751 30.26997227 -0.25 27.3125 C3.05 27.6425 6.35 27.9725 9.75 28.3125 C8.12095075 35.03232818 6.48346442 38.2661663 0.78515625 42.21875 C-4.90899332 45.27894555 -12.4407906 45.43474183 -18.5703125 43.62890625 C-24.08192934 41.10362173 -27.61364768 37.56215742 -30.359375 32.109375 C-32.51892641 25.32762584 -32.64038596 15.21426511 -29.6875 8.6875 C-26.47935456 3.5994939 -22.19500958 -0.37435967 -16.375 -2.125 C-10.50734141 -3.22802884 -5.30637354 -2.75523242 0 0 Z M-18.25 8.3125 C-20.63246609 10.9414281 -21.25 11.70084178 -21.25 15.3125 C-14.32 15.3125 -7.39 15.3125 -0.25 15.3125 C-0.76764069 10.42454994 -0.76764069 10.42454994 -3.375 8.0625 C-8.79567799 4.76295688 -13.20641464 4.2496118 -18.25 8.3125 Z " fill="#FFC400" transform="translate(507.25,156.6875)"/>
<path d="M0 0 C13.86 0 27.72 0 42 0 C42 2.64 42 5.28 42 8 C41 9 41 9 38.04077148 9.11352539 C36.74727783 9.10828857 35.45378418 9.10305176 34.12109375 9.09765625 C33.09110008 9.09553383 33.09110008 9.09553383 32.04029846 9.09336853 C29.83932199 9.08775479 27.63844591 9.07520007 25.4375 9.0625 C23.94856917 9.05748676 22.45963676 9.05292355 20.97070312 9.04882812 C17.31373195 9.03863021 13.65697883 9.01905779 10 9 C10 14.61 10 20.22 10 26 C19.24 26 28.48 26 38 26 C38 28.31 38 30.62 38 33 C28.76 33 19.52 33 10 33 C10 42.24 10 51.48 10 61 C6.7 61 3.4 61 0 61 C0 40.87 0 20.74 0 0 Z " fill="#FFC300" transform="translate(341,139)"/>
<path d="M0 0 C2.75 0.875 2.75 0.875 5 2 C2.21537375 3.8564175 -0.03754623 4.84130505 -3.1640625 5.953125 C-4.19539307 6.32203857 -5.22672363 6.69095215 -6.28930664 7.07104492 C-7.39008545 7.4601001 -8.49086426 7.84915527 -9.625 8.25 C-10.75349365 8.65259033 -11.8819873 9.05518066 -13.04467773 9.4699707 C-20.04708168 11.96502283 -27.05883852 14.43357667 -34.07397461 16.89257812 C-39.62952622 18.84828568 -45.14587522 20.90267626 -50.65063477 22.99682617 C-52.43079264 23.67241278 -54.21530718 24.33648598 -56 25 C-56.97710937 25.46019531 -57.95421875 25.92039063 -58.9609375 26.39453125 C-63.44291366 27.28746995 -66.04819222 25.58269057 -69.9375 23.4375 C-70.61490234 23.08880859 -71.29230469 22.74011719 -71.99023438 22.38085938 C-76.61638849 19.94580798 -80.88304733 17.22593032 -85 14 C-85 13.34 -85 12.68 -85 12 C-83.94039063 11.79503906 -82.88078125 11.59007812 -81.7890625 11.37890625 C-80.40101178 11.10692334 -79.01299256 10.83477956 -77.625 10.5625 C-76.92632812 10.42779297 -76.22765625 10.29308594 -75.5078125 10.15429688 C-71.64371266 9.4227578 -71.64371266 9.4227578 -68 8 C-65.92881764 7.6729615 -63.85031858 7.39180024 -61.76953125 7.1328125 C-60.49779053 6.97071289 -59.2260498 6.80861328 -57.91577148 6.64160156 C-57.24456268 6.55720825 -56.57335388 6.47281494 -55.88180542 6.38586426 C-45.74688295 5.10821863 -35.6863117 3.78791103 -25.71484375 1.515625 C-23.05612061 1.01065888 -20.69831492 0.8268461 -18 1 C-17.505 1.495 -17.505 1.495 -17 2 C-14.89868079 2.12602054 -12.79256212 2.1757922 -10.6875 2.1875 C-8.96080078 2.20876953 -8.96080078 2.20876953 -7.19921875 2.23046875 C-4.11197515 2.00806659 -2.65704515 1.41432916 0 0 Z " fill="#0A0A0A" transform="translate(190,178)"/>
<path d="M0 0 C14.11399048 11.89668684 18.3798982 42.97741379 20 60 C21.04107845 76.5105905 19.96575697 92.74245633 17 109 C16.80664062 110.08539063 16.61328125 111.17078125 16.4140625 112.2890625 C12.73957825 129.22986652 5.00896401 145.30659991 -4 160 C-4.36150146 160.59458008 -4.72300293 161.18916016 -5.09545898 161.80175781 C-7.6798093 165.89066659 -7.6798093 165.89066659 -10.5625 166.875 C-12.37309963 166.96785126 -14.18702114 167 -16 167 C-15.41992188 166.10539063 -14.83984375 165.21078125 -14.2421875 164.2890625 C-12.19537507 161.12680539 -10.16618723 157.95355441 -8.14111328 154.77734375 C-7.20002784 153.31155385 -6.24104772 151.85726912 -5.27734375 150.40625 C15.1039478 118.6657853 17.71888047 75.8487603 10 40 C9.07710554 36.49423985 7.92989633 33.08127082 6.7421875 29.65625 C5.74305529 26.08040841 5.8221147 22.82361096 5.9765625 19.140625 C6.02627445 14.60026651 4.13248185 11.16148552 1.875 7.375 C0 4 0 4 0 0 Z " fill="#DCCCA8" transform="translate(303,100)"/>
<path d="M0 0 C2.79124483 2.55261509 4.27657594 5.84579264 5.5078125 9.37890625 C5.5078125 10.03890625 5.5078125 10.69890625 5.5078125 11.37890625 C1.0528125 11.87390625 1.0528125 11.87390625 -3.4921875 12.37890625 C-3.9046875 11.59515625 -4.3171875 10.81140625 -4.7421875 10.00390625 C-6.60428073 7.2107664 -7.2982761 6.26610386 -10.4921875 5.37890625 C-14.87485462 5.45859111 -16.92508045 5.92275493 -20.3671875 8.69140625 C-24.08805043 13.39720349 -24.03191393 18.55967399 -23.4921875 24.37890625 C-22.57159637 28.15550453 -21.2133471 30.77469145 -18.1796875 33.31640625 C-14.91789158 34.60595347 -12.96756518 34.95813586 -9.4921875 34.37890625 C-5.84634337 31.47880296 -3.88667002 28.81589609 -2.4921875 24.37890625 C0.4778125 24.70890625 3.4478125 25.03890625 6.5078125 25.37890625 C6.08740184 30.98438166 4.12430219 35.15067203 0.5078125 39.37890625 C-4.20621052 43.12917345 -9.11497571 43.97722586 -15.03515625 43.6953125 C-20.6047751 42.97808018 -24.24021903 41.5492246 -28.3671875 37.69140625 C-33.742226 29.31266976 -33.7104885 18.46236271 -31.8046875 8.87890625 C-29.86858173 3.71595753 -27.19261323 1.37082126 -22.4921875 -1.37109375 C-15.01650015 -4.48596348 -7.00186254 -4.41280174 0 0 Z " fill="#FFC200" transform="translate(467.4921875,157.62109375)"/>
<path d="M0 0 C3.3 0 6.6 0 10 0 C10 20.13 10 40.26 10 61 C6.7 61 3.4 61 0 61 C0 40.87 0 20.74 0 0 Z " fill="#FFC300" transform="translate(789,139)"/>
<path d="M0 0 C0.99 0 1.98 0 3 0 C3.20496094 0.75925781 3.40992188 1.51851562 3.62109375 2.30078125 C3.89050781 3.29464844 4.15992188 4.28851563 4.4375 5.3125 C4.83775391 6.79169922 4.83775391 6.79169922 5.24609375 8.30078125 C6.18975913 12.21453964 6.18975913 12.21453964 8.4375 15.4140625 C10.27173901 17.27581509 11.01261089 18.96412492 12 21.375 C13.44316349 24.77713445 15.08527042 27.83653373 17 31 C18.84921377 34.98292196 20.34078571 38.6491857 21 43 C21.66 43 22.32 43 23 43 C24.09219862 44.70637126 25.09667665 46.46904914 26.0625 48.25 C34.56678527 63.17624555 45.96170239 76.22491658 59.234375 87.09765625 C61 89 61 89 61 93 C61.5775 93.28875 62.155 93.5775 62.75 93.875 C64.83333333 94.91666667 66.91666667 95.95833333 69 97 C69 97.99 69 98.98 69 100 C44.40069521 91.5737188 24.47882501 61.93035051 13.2644043 39.95605469 C7.2276672 27.60577276 1.81012156 13.6890443 0 0 Z " fill="#DAC9A3" transform="translate(9,207)"/>
<path d="M0 0 C0.79921875 0.19464844 1.5984375 0.38929688 2.421875 0.58984375 C3.02515625 0.74582031 3.6284375 0.90179688 4.25 1.0625 C3.375 7.8125 3.375 7.8125 2.25 10.0625 C1.64671875 10.03929687 1.0434375 10.01609375 0.421875 9.9921875 C-0.37734375 9.97414062 -1.1765625 9.95609375 -2 9.9375 C-3.18335938 9.90269531 -3.18335938 9.90269531 -4.390625 9.8671875 C-7.13989726 9.94753237 -7.13989726 9.94753237 -10.75 12.0625 C-11.08 22.9525 -11.41 33.8425 -11.75 45.0625 C-14.39 45.0625 -17.03 45.0625 -19.75 45.0625 C-19.75 30.2125 -19.75 15.3625 -19.75 0.0625 C-17.44 0.0625 -15.13 0.0625 -12.75 0.0625 C-12.42 1.3825 -12.09 2.7025 -11.75 4.0625 C-11.3375 3.423125 -10.925 2.78375 -10.5 2.125 C-7.39896681 -1.52978912 -4.40298173 -1.10074543 0 0 Z " fill="#FFC300" transform="translate(608.75,154.9375)"/>
<path d="M0 0 C-5.85239829 11.0835923 -11.88440497 22.05960152 -18 33 C-21.57297961 31.8090068 -21.94245439 30.96667312 -23.8828125 27.8515625 C-24.67365234 26.59085938 -24.67365234 26.59085938 -25.48046875 25.3046875 C-26.02316406 24.42039062 -26.56585938 23.53609375 -27.125 22.625 C-27.67542969 21.7484375 -28.22585937 20.871875 -28.79296875 19.96875 C-32.85029486 13.44911541 -32.85029486 13.44911541 -34 10 C-28.54881411 7.4645647 -22.98367682 5.70489192 -17.2265625 3.984375 C-13.7765985 2.93184361 -10.38534989 1.75868316 -7 0.515625 C-4.61438525 -0.0994163 -2.4532931 -0.08518379 0 0 Z " fill="#090909" transform="translate(132,93)"/>
<path d="M0 0 C11.26595799 2.21295603 22.33193691 5.77722502 33 10 C31.70208638 13.48174753 30.18014318 16.51615907 28.1796875 19.64453125 C27.64472656 20.48564453 27.10976562 21.32675781 26.55859375 22.19335938 C26.00300781 23.05767578 25.44742188 23.92199219 24.875 24.8125 C24.31167969 25.69615234 23.74835938 26.57980469 23.16796875 27.49023438 C21.78236826 29.66257413 20.39295366 31.83237083 19 34 C16.56304953 31.7704873 15.04346796 29.54828164 13.4765625 26.6484375 C13.0125 25.79636719 12.5484375 24.94429687 12.0703125 24.06640625 C11.35488281 22.73416016 11.35488281 22.73416016 10.625 21.375 C9.67985842 19.63271977 8.73454691 17.89053171 7.7890625 16.1484375 C7.32918945 15.29475586 6.86931641 14.44107422 6.39550781 13.56152344 C4.60834481 10.28109757 2.75866881 7.03738956 0.89599609 3.79931641 C0 2 0 2 0 0 Z " fill="#0A0A0A" transform="translate(198,93)"/>
<path d="M0 0 C0.88817413 -0.0010675 1.77634827 -0.00213501 2.69143677 -0.00323486 C16.90391737 0.02141985 30.12502221 1.11267901 43.75 5.4375 C45.02012939 5.83026123 45.02012939 5.83026123 46.31591797 6.23095703 C51.21102452 7.77161067 56.05529353 9.35841571 60.75 11.4375 C61.245 12.4275 61.245 12.4275 61.75 13.4375 C56.87651258 13.71237658 53.31676173 12.79324593 48.75 11.125 C41.51331668 8.56248144 34.30030544 6.86845157 26.75 5.4375 C26.75 6.0975 26.75 6.7575 26.75 7.4375 C25.7290625 7.28410156 24.708125 7.13070313 23.65625 6.97265625 C17.21547115 6.16755889 10.73188724 6.07591216 4.25 5.875 C2.950625 5.83181641 1.65125 5.78863281 0.3125 5.74414062 C-2.87490845 5.6386749 -6.06238698 5.53655552 -9.25 5.4375 C-9.745 4.4475 -9.745 4.4475 -10.25 3.4375 C-26.67586326 5.51708712 -42.3057135 8.08178718 -57.67578125 14.484375 C-60.25 15.4375 -60.25 15.4375 -63.25 15.4375 C-63.25 14.7775 -63.25 14.1175 -63.25 13.4375 C-55.90926353 10.00270406 -48.46513276 7.481668 -40.6875 5.25 C-39.82616455 5.00040527 -38.9648291 4.75081055 -38.07739258 4.49365234 C-35.47741137 3.76429036 -32.87126609 3.08606827 -30.25 2.4375 C-29.44997559 2.23809814 -28.64995117 2.03869629 -27.82568359 1.83325195 C-18.65777696 -0.14269698 -9.33472139 -0.00237577 0 0 Z " fill="#EFE3C0" transform="translate(164.25,16.5625)"/>
<path d="M0 0 C2.73641506 1.31181391 5.24598195 2.7603734 7.7578125 4.4609375 C15.29033633 9.49470801 22.36284523 14.10263965 31 17 C33.18973477 17.84842122 35.37710508 18.70296175 37.5625 19.5625 C51.47411277 24.8683244 66.28622868 29.88478848 81.26953125 30.31640625 C81.95053391 30.33718735 82.63153656 30.35796844 83.33317566 30.37937927 C85.49285508 30.44437878 87.65264846 30.50352712 89.8125 30.5625 C91.28321456 30.6057325 92.75391791 30.64934825 94.22460938 30.69335938 C97.81628717 30.80000859 101.40809082 30.90141349 105 31 C105 31.33 105 31.66 105 32 C99.31312039 32.39012488 93.62538936 32.74652512 87.93457031 33.07421875 C86.0062858 33.18972331 84.07849278 33.31381366 82.15136719 33.44726562 C69.62501061 34.3075565 58.94784935 34.01227363 47 30 C46.06430176 29.69046387 45.12860352 29.38092773 44.16455078 29.06201172 C41.76323666 28.21225833 39.41446384 27.28984143 37.0625 26.3125 C36.23766113 25.97653809 35.41282227 25.64057617 34.56298828 25.29443359 C13.51794618 16.51794618 13.51794618 16.51794618 8 11 C8 9.68 8 8.36 8 7 C7.236875 6.71125 6.47375 6.4225 5.6875 6.125 C3 5 3 5 0 3 C0 2.01 0 1.02 0 0 Z " fill="#C2AA78" transform="translate(70,297)"/>
<path d="M0 0 C14.08076523 11.86868127 18.4298409 43.00808024 20 60 C20.38228804 68.00057912 20.27875661 75.9975411 20 84 C19.34 84 18.68 84 18 84 C17.01 84.99 17.01 84.99 16 86 C15.92652344 84.24236328 15.92652344 84.24236328 15.8515625 82.44921875 C15.45523175 73.78999231 14.77645619 65.49564051 13 57 C12.6917485 55.32747585 12.38746421 53.65421833 12.0859375 51.98046875 C11.74485538 50.11196753 11.40370879 48.24347809 11.0625 46.375 C10.90483154 45.49158936 10.74716309 44.60817871 10.5847168 43.69799805 C9.78180855 39.39207555 8.83187989 35.31067983 7.375 31.17578125 C6.23112852 27.91313554 5.69771913 25.30394339 5.9375 21.8125 C6.10375679 16.14226844 4.75990636 12.21386776 1.875 7.375 C0 4 0 4 0 0 Z " fill="#EBE4BB" transform="translate(303,100)"/>
<path d="M0 0 C0.33 0 0.66 0 1 0 C1 5.28 1 10.56 1 16 C1.33 16 1.66 16 2 16 C1.99214478 17.61056274 1.99214478 17.61056274 1.98413086 19.25366211 C1.96589984 23.27367301 1.95450242 27.29368033 1.94506836 31.3137207 C1.94006925 33.04679989 1.93326776 34.77987493 1.92456055 36.51293945 C1.91229973 39.01775138 1.90672734 41.52250708 1.90234375 44.02734375 C1.89718246 44.79022202 1.89202118 45.55310028 1.88670349 46.33909607 C1.88592559 53.96129533 2.46089657 61.01166236 5.04296875 68.2109375 C6.33674647 71.98137544 7.44651183 75.79875483 8.5625 79.625 C8.77229492 80.34171875 8.98208984 81.0584375 9.19824219 81.796875 C10.48187879 86.19327965 11.74560605 90.59516963 13 95 C9.62637884 92.54645733 9.30866449 89.6305293 8.625 85.7421875 C8.41875 85.16726562 8.2125 84.59234375 8 84 C7.01 83.67 6.02 83.34 5 83 C4.05078125 80.85546875 4.05078125 80.85546875 3.3125 78.1875 C3.06113281 77.31480469 2.80976563 76.44210938 2.55078125 75.54296875 C2 73 2 73 2 69 C1.01 69 0.02 69 -1 69 C-2.719384 61.65529527 -3.43740097 54.53043514 -3.6875 47 C-3.72584961 45.9056665 -3.76419922 44.81133301 -3.80371094 43.68383789 C-4.24636035 28.71155036 -3.17062227 14.63670911 0 0 Z " fill="#D2AD6E" transform="translate(10,138)"/>
<path d="M0 0 C-2.64 0.99 -5.28 1.98 -8 3 C-5.69 3.33 -3.38 3.66 -1 4 C-17.69396359 15.12930906 -49.90718223 11.53931818 -68.96728516 9.42651367 C-71.22443942 8.95290708 -72.98752675 8.11033982 -75 7 C-73.91920166 6.96036133 -72.83840332 6.92072266 -71.72485352 6.87988281 C-38.68868184 6.49075317 -38.68868184 6.49075317 -6.6015625 -0.1875 C-4 -1 -4 -1 0 0 Z " fill="#E3DBC4" transform="translate(210,323)"/>
<path d="M0 0 C1 2 1 2 0.45849609 3.68554688 C0.14992676 4.35650391 -0.15864258 5.02746094 -0.4765625 5.71875 C-0.8154248 6.47671875 -1.15428711 7.2346875 -1.50341797 8.015625 C-1.87354004 8.83546875 -2.24366211 9.6553125 -2.625 10.5 C-14.34838103 37.54213712 -16.14756335 65.82074761 -13 95 C-13.66 94.67 -14.32 94.34 -15 94 C-16.33856608 88.26716088 -16.1384624 82.10462258 -16.09765625 76.24609375 C-16.0962413 75.45977066 -16.09482635 74.67344757 -16.09336853 73.86329651 C-16.08783672 71.38798985 -16.07529775 68.91277863 -16.0625 66.4375 C-16.05747616 64.74414194 -16.05291481 63.05078245 -16.04882812 61.35742188 C-16.03788978 57.2382453 -16.02067362 53.11913875 -16 49 C-16.33 49 -16.66 49 -17 49 C-16.97215642 34.88330539 -15.243289 23.1322743 -10 10 C-9.01 10 -8.02 10 -7 10 C-5.92474806 7.34771188 -4.90543849 4.71631546 -4 2 C-1.9375 0.8125 -1.9375 0.8125 0 0 Z " fill="#A07B33" transform="translate(27,106)"/>
<path d="M0 0 C-0.6391333 0.35715088 -1.2782666 0.71430176 -1.93676758 1.08227539 C-4.8971997 2.73906037 -7.85484923 4.40075529 -10.8125 6.0625 C-11.81732422 6.62388672 -12.82214844 7.18527344 -13.85742188 7.76367188 C-27.96200154 14.45845507 -27.96200154 14.45845507 -37 26 C-37.5878125 27.670625 -37.5878125 27.670625 -38.1875 29.375 C-38.455625 30.24125 -38.72375 31.1075 -39 32 C-39.33 32 -39.66 32 -40 32 C-40.99250545 26.29309366 -41.10477512 20.78591511 -41 15 C-36.34022695 12.22666414 -31.70296081 9.90979588 -26.640625 7.94921875 C-25.96956726 7.68615433 -25.29850952 7.4230899 -24.6071167 7.15205383 C-23.20322308 6.60395628 -21.79819735 6.05875019 -20.39208984 5.51635742 C-18.23742106 4.68263272 -16.0894717 3.8329932 -13.94140625 2.98242188 C-12.5706907 2.44954696 -11.19960944 1.91761161 -9.828125 1.38671875 C-9.18748108 1.13162033 -8.54683716 0.87652191 -7.88677979 0.61369324 C-3.34361956 -1.11453985 -3.34361956 -1.11453985 0 0 Z " fill="#111112" transform="translate(173,197)"/>
<path d="M0 0 C19.86291809 -0.5534032 38.79572801 -0.89888464 58 5 C58.85400391 5.26184082 59.70800781 5.52368164 60.58789062 5.79345703 C65.47510125 7.33309664 70.31260434 8.92415335 75 11 C75.495 11.99 75.495 11.99 76 13 C71.12651258 13.27487658 67.56676173 12.35574593 63 10.6875 C55.76331668 8.12498144 48.55030544 6.43095157 41 5 C41 5.66 41 6.32 41 7 C33.25 6.25 33.25 6.25 31 4 C31 3.67 31 3.34 31 3 C20.77 2.34 10.54 1.68 0 1 C0 0.67 0 0.34 0 0 Z " fill="#E8DFB5" transform="translate(150,17)"/>
<path d="M0 0 C7.25083091 6.59166446 14.91627017 16.22668855 16.5 26.125 C16.82227035 29.17581858 16.82227035 29.17581858 19 31.875 C21.56835179 35.88804967 21.84697562 38.25624426 22 43 C21.0078125 45.2421875 21.0078125 45.2421875 20 47 C18.85017194 44.08489248 17.70584512 41.16765566 16.5625 38.25 C16.23701172 37.425 15.91152344 36.6 15.57617188 35.75 C15.26357422 34.95078125 14.95097656 34.1515625 14.62890625 33.328125 C14.34088135 32.5949707 14.05285645 31.86181641 13.75610352 31.10644531 C13.03135375 29.0873491 12.4810009 27.08915413 12 25 C11.34 25 10.68 25 10 25 C9.649375 24.05125 9.29875 23.1025 8.9375 22.125 C7.50873481 18.69180209 5.5647341 16.01228839 3.3125 13.0625 C-0.09415883 8.38907938 -0.73768927 5.69074581 0 0 Z " fill="#D6B67F" transform="translate(288,77)"/>
<path d="M0 0 C2.4375 1 2.4375 1 4 3 C4.56153595 7.42209561 4.79893062 9.72171101 2.4375 13.5 C-0.94888329 15.58392818 -3.09385318 15.55802097 -7 15 C-9.4375 13.4375 -9.4375 13.4375 -11 11 C-11.56288002 7.05983987 -11.60396028 4.94217804 -9.4375 1.5625 C-6.08147594 -0.58879747 -3.91578329 -0.48947291 0 0 Z " fill="#E6E6E7" transform="translate(143,113)"/>
<path d="M0 0 C7.23885969 6.10163702 10.44364127 18.79552421 13.375 27.5625 C13.62548096 28.31152588 13.87596191 29.06055176 14.1340332 29.83227539 C15.4387988 33.86910668 16.42681035 37.78105758 17 42 C16.01 42.66 15.02 43.32 14 44 C13.26656572 47.06556598 13.26656572 47.06556598 13 50 C12.67 50 12.34 50 12 50 C11.85377197 49.37432129 11.70754395 48.74864258 11.55688477 48.10400391 C10.89467208 45.27705709 10.2286345 42.45102513 9.5625 39.625 C9.33240234 38.64015625 9.10230469 37.6553125 8.86523438 36.640625 C8.64287109 35.69960937 8.42050781 34.75859375 8.19140625 33.7890625 C7.98717041 32.91975098 7.78293457 32.05043945 7.57250977 31.15478516 C7.0704829 28.97217907 7.0704829 28.97217907 6 27 C5.9800658 25.41665509 6.00735193 23.83250977 6.0625 22.25 C6.10426622 16.42778961 4.84156901 12.35084093 1.875 7.375 C0 4 0 4 0 0 Z " fill="#DECC9A" transform="translate(303,100)"/>
<path d="M0 0 C3 2 3 2 3.9375 5.8125 C4.21261583 9.02608707 4.00752205 9.9849559 2.5 13 C0 15 0 15 -3.5 15.625 C-7 15 -7 15 -9.4375 12.875 C-11.26836859 9.50620179 -11.64250722 7.77472994 -11 4 C-8.03880778 -0.50101217 -5.14843558 -0.56164752 0 0 Z " fill="#EAEBEC" transform="translate(193,113)"/>
<path d="M0 0 C2.73641506 1.31181391 5.24598195 2.7603734 7.7578125 4.4609375 C15.26910555 9.47763855 22.35226503 14.16157496 31 17 C31.66 17.33 32.32 17.66 33 18 C33 19.32 33 20.64 33 22 C33.94875 22.268125 34.8975 22.53625 35.875 22.8125 C39 24 39 24 41 27 C29.65282812 23.75795089 17.46385924 18.09789443 8 11 C8 9.68 8 8.36 8 7 C7.236875 6.71125 6.47375 6.4225 5.6875 6.125 C3 5 3 5 0 3 C0 2.01 0 1.02 0 0 Z " fill="#CFBA6D" transform="translate(70,297)"/>
<path d="M0 0 C0.33 0 0.66 0 1 0 C1.33 5.28 1.66 10.56 2 16 C2.66 15.01 3.32 14.02 4 13 C5.44547521 18.78190084 4.55251823 23.95711775 3.6875 29.75 C3.55666016 30.6884375 3.42582031 31.626875 3.29101562 32.59375 C2.61958056 37.2905518 1.8676163 41.97241936 1.01953125 46.640625 C0.87233643 47.45563477 0.7251416 48.27064453 0.57348633 49.11035156 C0.38423584 49.73393555 0.19498535 50.35751953 0 51 C-0.99 51.495 -0.99 51.495 -2 52 C-3.62136336 41.46113817 -3.05119794 31.57210861 -1.51171875 21.046875 C-0.55945638 14.07402483 -0.32672025 7.02448537 0 0 Z " fill="#E6E0C5" transform="translate(318,168)"/>
<path d="M0 0 C3.69853992 3.63790812 7.20821598 7.4034836 10.6875 11.25 C15.25316589 16.28037015 19.97311592 20.78772546 25.234375 25.09765625 C27 27 27 27 27 31 C27.5775 31.28875 28.155 31.5775 28.75 31.875 C31.875 33.4375 31.875 33.4375 35 35 C35 35.99 35 36.98 35 38 C30.31406576 36.45869082 26.87928451 33.89768497 23.0625 30.875 C22.43714355 30.3807251 21.81178711 29.8864502 21.16748047 29.37719727 C17.31990569 26.25982285 14.11048085 23.18878775 11.3671875 19.03125 C9.66820062 16.50704093 7.7152305 14.25940935 5.75 11.9375 C2.5520028 7.98882788 0.86804387 4.99125224 0 0 Z " fill="#DDD194" transform="translate(43,269)"/>
<path d="M0 0 C-1.32 0.33 -2.64 0.66 -4 1 C-4 1.66 -4 2.32 -4 3 C-4.71027344 3.13277344 -5.42054688 3.26554687 -6.15234375 3.40234375 C-7.07144531 3.57894531 -7.99054688 3.75554687 -8.9375 3.9375 C-9.85402344 4.11152344 -10.77054688 4.28554688 -11.71484375 4.46484375 C-13.95289844 4.77714988 -13.95289844 4.77714988 -15 6 C-18.64671516 6.09436732 -22.29433314 5.8517688 -25.9375 5.6875 C-27.45053711 5.63432617 -27.45053711 5.63432617 -28.99414062 5.58007812 C-35.50013405 5.29939457 -41.65940438 4.48617311 -48 3 C-48 2.67 -48 2.34 -48 2 C-42.45000067 1.71256202 -36.89987169 1.42782219 -31.34960938 1.14550781 C-29.46415532 1.04923206 -27.57873779 0.95223797 -25.69335938 0.85449219 C-22.97275081 0.71357272 -20.25201838 0.57529525 -17.53125 0.4375 C-16.69758911 0.39375244 -15.86392822 0.35000488 -15.00500488 0.30493164 C-9.99589517 0.05428704 -5.01543424 -0.04028461 0 0 Z " fill="#D6B985" transform="translate(183,328)"/>
<path d="M0 0 C1 2 1 2 0.44262695 3.7331543 C0.12769287 4.42320557 -0.18724121 5.11325684 -0.51171875 5.82421875 C-0.85589844 6.59918701 -1.20007812 7.37415527 -1.5546875 8.17260742 C-1.92851562 9.00252197 -2.30234375 9.83243652 -2.6875 10.6875 C-6.32832116 19.00065546 -8.98960025 27.15159584 -11 36 C-11.33 36 -11.66 36 -12 36 C-11.979375 35.071875 -11.95875 34.14375 -11.9375 33.1875 C-11.84230396 29.97713989 -11.84230396 29.97713989 -13 27 C-13.65469619 20.61671215 -12.54974923 15.84317533 -10 10 C-9.01 10 -8.02 10 -7 10 C-5.92474806 7.34771188 -4.90543849 4.71631546 -4 2 C-1.9375 0.8125 -1.9375 0.8125 0 0 Z " fill="#9E7D20" transform="translate(27,106)"/>
<path d="M0 0 C2.65425686 3.20341345 4.88930846 6.4210013 7 10 C9.2472293 13.41475321 9.2472293 13.41475321 13 15 C15.18645975 17.37658668 16.29412977 19.65613565 17.625 22.625 C20.32567959 28.2602763 24.71441341 32.53126868 29 37 C28.67 37.66 28.34 38.32 28 39 C19.08034463 30.70020664 10.67435061 22.34891426 3.875 12.1875 C3.36098633 11.42969238 2.84697266 10.67188477 2.31738281 9.89111328 C-1.09753208 4.57408359 -1.09753208 4.57408359 -0.62060547 1.7668457 C-0.41580566 1.18378662 -0.21100586 0.60072754 0 0 Z " fill="#EEE8D8" transform="translate(28,252)"/>
<path d="M0 0 C0.99 0.33 1.98 0.66 3 1 C0.4955911 5.90864144 -2.18084994 9.40928444 -6.1640625 13.19921875 C-7.96759718 14.96821766 -9.56903856 16.81179374 -11.1875 18.75 C-15.97244092 24.32511466 -21.53043691 29.11421622 -27 34 C-27.99 33.67 -28.98 33.34 -30 33 C-25.54648344 27.60890101 -20.72799105 22.5914684 -15.8125 17.625 C-14.90346924 16.6966333 -14.90346924 16.6966333 -13.97607422 15.74951172 C-13.39229004 15.16443848 -12.80850586 14.57936523 -12.20703125 13.9765625 C-11.6860083 13.45143066 -11.16498535 12.92629883 -10.62817383 12.38525391 C-8.86024675 10.88109762 -7.07103589 10.02938135 -5 9 C-2.36736021 6.14170537 -0.5762962 3.88999932 0 0 Z " fill="#EAD9B9" transform="translate(291,265)"/>
<path d="M0 0 C0.99 0.33 1.98 0.66 3 1 C3.103125 1.969375 3.20625 2.93875 3.3125 3.9375 C3.83028289 7.5194227 4.85019045 10.732687 6.04296875 14.140625 C7.31486046 17.94072594 8.43856 21.77894024 9.5625 25.625 C9.77229492 26.34155762 9.98208984 27.05811523 10.19824219 27.79638672 C11.48164976 32.19302071 12.74556319 36.59501914 14 41 C10.62637884 38.54645733 10.30866449 35.6305293 9.625 31.7421875 C9.41875 31.16726562 9.2125 30.59234375 9 30 C8.01 29.67 7.02 29.34 6 29 C5.05078125 26.85546875 5.05078125 26.85546875 4.3125 24.1875 C4.06113281 23.31480469 3.80976563 22.44210938 3.55078125 21.54296875 C3 19 3 19 3 15 C2.01 14.67 1.02 14.34 0 14 C0 9.38 0 4.76 0 0 Z " fill="#C3A26A" transform="translate(9,192)"/>
<path d="M0 0 C0.33 0 0.66 0 1 0 C2.84552952 9.35234554 3.94004746 16.32429682 -1 25 C-1.66 25 -2.32 25 -3 25 C-4.7143618 26.95927063 -6.38405168 28.95880212 -8 31 C-9 29 -9 29 -8.50268555 26.97216797 C-8.2169165 26.15377441 -7.93114746 25.33538086 -7.63671875 24.4921875 C-7.17168945 23.13480469 -7.17168945 23.13480469 -6.69726562 21.75 C-6.19743164 20.326875 -6.19743164 20.326875 -5.6875 18.875 C-3.51515925 12.62353444 -1.49503829 6.45067282 0 0 Z " fill="#E6DABA" transform="translate(314,206)"/>
<path d="M0 0 C0.33 0.99 0.66 1.98 1 3 C-7.07905166 6.25955975 -14.15568693 8.91703707 -23 8 C-20.21466571 4.88009102 -18.15654359 4.46183818 -14 4 C-14 3.34 -14 2.68 -14 2 C-12.04396149 1.47061343 -10.08507711 0.95173199 -8.125 0.4375 C-7.03445312 0.14746094 -5.94390625 -0.14257812 -4.8203125 -0.44140625 C-2 -1 -2 -1 0 0 Z " fill="#DAD3AE" transform="translate(224,319)"/>
<path d="M0 0 C4.74646695 -0.07515721 9.49257414 -0.12906792 14.23950195 -0.16479492 C15.84828743 -0.17971634 17.45703344 -0.20006091 19.06567383 -0.22631836 C29.20073639 -0.3873929 38.20277866 0.10682433 48 3 C48 3.33 48 3.66 48 4 C45.91673869 4.02709444 43.83337559 4.04643873 41.75 4.0625 C40.00976562 4.07990234 40.00976562 4.07990234 38.234375 4.09765625 C35 4 35 4 33.24609375 3.52734375 C30.11695907 2.79267735 27.03524189 2.66200258 23.828125 2.46484375 C23.1457074 2.42186661 22.46328979 2.37888947 21.76019287 2.33460999 C19.5903284 2.19875655 17.42018891 2.06805756 15.25 1.9375 C13.77471844 1.84604355 12.29945771 1.75425044 10.82421875 1.66210938 C7.21637893 1.43750574 3.60827447 1.21752234 0 1 C0 0.67 0 0.34 0 0 Z " fill="#F3EFE0" transform="translate(150,17)"/>
<path d="M0 0 C1.5627962 0.14262412 3.12522696 0.28925511 4.6875 0.4375 C5.99267578 0.55931641 5.99267578 0.55931641 7.32421875 0.68359375 C10 1 10 1 12.21289062 1.5 C15.58517692 2.10497918 18.84454954 2.21774423 22.26953125 2.31640625 C22.95053391 2.33718735 23.63153656 2.35796844 24.33317566 2.37937927 C26.49285508 2.44437878 28.65264846 2.50352712 30.8125 2.5625 C32.28321456 2.6057325 33.75391791 2.64934825 35.22460938 2.69335938 C38.81628717 2.80000859 42.40809082 2.90141349 46 3 C46 3.33 46 3.66 46 4 C25.21 4.99 25.21 4.99 4 6 C3.67 5.01 3.34 4.02 3 3 C2.34 3 1.68 3 1 3 C0.67 2.01 0.34 1.02 0 0 Z " fill="#A78757" transform="translate(129,325)"/>
<path d="M0 0 C0.33 0 0.66 0 1 0 C1.33 5.28 1.66 10.56 2 16 C2.66 15.01 3.32 14.02 4 13 C4.33 14.32 4.66 15.64 5 17 C4.34 17 3.68 17 3 17 C2.90203125 18.20398438 2.8040625 19.40796875 2.703125 20.6484375 C2.55306645 22.22405227 2.40197088 23.79956853 2.25 25.375 C2.188125 26.1690625 2.12625 26.963125 2.0625 27.78125 C1.84367732 29.93300639 1.61079513 31.92444902 1 34 C-1.078125 35.5390625 -1.078125 35.5390625 -3 36 C-2.86722656 34.82566406 -2.73445313 33.65132812 -2.59765625 32.44140625 C-1.40312006 21.635257 -0.52833919 10.85876078 0 0 Z " fill="#EEDFA8" transform="translate(318,168)"/>
<path d="M0 0 C-0.95008298 3.66907046 -1.66731984 4.79820322 -4.96875 6.80078125 C-6.1340625 7.29964844 -7.299375 7.79851562 -8.5 8.3125 C-9.6653125 8.82425781 -10.830625 9.33601563 -12.03125 9.86328125 C-15 11 -15 11 -17 11 C-17.33 12.32 -17.66 13.64 -18 15 C-18.33 14.34 -18.66 13.68 -19 13 C-21.32156597 12.59270772 -23.6568787 12.25561323 -26 12 C-23.3550268 10.23668453 -20.83050592 9.04877371 -17.91259766 7.82958984 C-14.12308505 6.18588754 -10.4780994 4.2385436 -6.81054688 2.34179688 C-2.21183702 0 -2.21183702 0 0 0 Z " fill="#D1C194" transform="translate(244,307)"/>
<path d="M0 0 C3.20060068 2.66716723 4.68775075 6.09998672 6.375 9.8125 C6.67664063 10.4710498 6.97828125 11.12959961 7.2890625 11.80810547 C15.8425765 30.80433651 15.8425765 30.80433651 14 37 C11.48166894 34.48166894 11.32344499 32.7064959 10.5625 29.25 C9.50497555 24.7742147 8.21771387 21.04973836 6 17 C5.690625 16.030625 5.38125 15.06125 5.0625 14.0625 C4.17562083 11.50620123 3.26019413 9.65449491 1.875 7.375 C0 4 0 4 0 0 Z " fill="#DBD2BC" transform="translate(303,100)"/>
<path d="M0 0 C0 0.33 0 0.66 0 1 C-0.56807373 1.12528076 -1.13614746 1.25056152 -1.72143555 1.37963867 C-11.97225838 3.66439197 -21.91588406 5.95100042 -31.6015625 10.08203125 C-34 11 -34 11 -37 11 C-37 10.34 -37 9.68 -37 9 C-24.71501274 3.59903263 -13.60416625 -0.88243241 0 0 Z " fill="#E0CCAA" transform="translate(138,21)"/>
<path d="M0 0 C0.33 0 0.66 0 1 0 C1.22126178 2.45779976 1.42750395 4.91527648 1.625 7.375 C1.68945312 8.07367188 1.75390625 8.77234375 1.8203125 9.4921875 C1.96119739 11.32369111 1.98761659 13.16312748 2 15 C1.34 15.66 0.68 16.32 0 17 C-0.24315656 19.66949409 -0.24315656 19.66949409 -0.125 22.625 C-0.10695313 23.62789062 -0.08890625 24.63078125 -0.0703125 25.6640625 C-0.04710937 26.43492187 -0.02390625 27.20578125 0 28 C-3.7242656 22.4136016 -3.12977336 16.11429177 -3.0625 9.625 C-3.05798828 8.79355469 -3.05347656 7.96210938 -3.04882812 7.10546875 C-3.03713164 5.07028103 -3.01919935 3.03513077 -3 1 C-2.01 1.495 -2.01 1.495 -1 2 C-0.67 1.34 -0.34 0.68 0 0 Z " fill="#D9B782" transform="translate(10,178)"/>
<path d="M0 0 C2.68259606 2.29002103 3.40587197 3.85393111 3.9375 7.3125 C4.57489051 10.66150101 5.09357 12.13893727 7.0625 15.0625 C9.62637154 18.94966008 9.85023557 21.35730256 10 26 C9.0078125 28.2421875 9.0078125 28.2421875 8 30 C1.42338019 13.60873043 1.42338019 13.60873043 1 5 C0.69295146 3.32829127 0.37437149 1.6579309 0 0 Z " fill="#DAC397" transform="translate(300,94)"/>
<path d="M0 0 C0 0.33 0 0.66 0 1 C-1.98 1 -3.96 1 -6 1 C-6 1.66 -6 2.32 -6 3 C-2.7 3 0.6 3 4 3 C4.33 3.66 4.66 4.32 5 5 C1.70774862 4.88822884 -1.58354647 4.75807764 -4.875 4.625 C-5.7928125 4.5940625 -6.710625 4.563125 -7.65625 4.53125 C-13.93854489 4.26580092 -19.874511 3.41690436 -26 2 C-26 1.67 -26 1.34 -26 1 C-17.31320899 0.28038418 -8.71700174 -0.14368684 0 0 Z " fill="#D8C2A5" transform="translate(161,329)"/>
<path d="M0 0 C17.50113585 4.61244889 17.50113585 4.61244889 24 8 C23.01257813 7.98839844 22.02515625 7.97679687 21.0078125 7.96484375 C19.72648437 7.95582031 18.44515625 7.94679688 17.125 7.9375 C15.21074219 7.92009766 15.21074219 7.92009766 13.2578125 7.90234375 C10.11335348 7.76823431 10.11335348 7.76823431 8 9 C7.13375 8.071875 7.13375 8.071875 6.25 7.125 C4.19750179 5.18652947 2.56633418 4.09985751 0 3 C0 2.01 0 1.02 0 0 Z " fill="#A98E49" transform="translate(103,316)"/>
<path d="M0 0 C0.33 0.66 0.66 1.32 1 2 C2.65 1.67 4.3 1.34 6 1 C1.92051177 4.48872085 -2.39505152 7.09067028 -7.0625 9.6875 C-8.12307617 10.29174805 -8.12307617 10.29174805 -9.20507812 10.90820312 C-9.89150391 11.29298828 -10.57792969 11.67777344 -11.28515625 12.07421875 C-12.21146851 12.59375122 -12.21146851 12.59375122 -13.15649414 13.1237793 C-15.08406964 14.03995841 -16.9178235 14.55285396 -19 15 C-19 14.01 -19 13.02 -19 12 C-17.43880578 11.20576139 -15.87598036 10.41472877 -14.3125 9.625 C-13.44238281 9.18414062 -12.57226562 8.74328125 -11.67578125 8.2890625 C-9 7 -9 7 -6.2421875 5.96484375 C-3.4738165 4.77357609 -3.13443702 3.70519597 -2 1 C-1.34 0.67 -0.68 0.34 0 0 Z " fill="#E4DBC0" transform="translate(246,306)"/>
<path d="M0 0 C2.79828356 0.38597015 3.8205884 0.80136573 5.75 2.9375 C7 5 7 5 7 7 C4.8125 8.5078125 4.8125 8.5078125 2 10.125 C1.071875 10.66382813 0.14375 11.20265625 -0.8125 11.7578125 C-1.8953125 12.37269531 -1.8953125 12.37269531 -3 13 C-2.45144652 8.428721 -1.58255197 4.32564205 0 0 Z " fill="#292929" transform="translate(141,228)"/>
<path d="M0 0 C6.44384276 1.88087474 12.00769663 4.41715728 17.75 7.875 C18.47832031 8.29652344 19.20664063 8.71804687 19.95703125 9.15234375 C24.24154621 11.69505952 27.64424349 14.31395249 31 18 C28.35474197 17.04476793 26.18876915 16.14300693 23.9375 14.4375 C22.10670873 12.883977 22.10670873 12.883977 19.9375 12.5 C18 12 18 12 16.68359375 10.59375 C14.63368925 8.65323716 12.76912506 7.96442251 10.125 7 C6.51848079 5.61855551 3.13904297 4.30196485 0 2 C0 1.34 0 0.68 0 0 Z " fill="#DFD9C7" transform="translate(227,30)"/>
<path d="M0 0 C1.171875 1.55078125 1.171875 1.55078125 2 4 C1.21063012 6.57723375 0.3784505 8.76974532 -0.75 11.1875 C-1.0284375 11.82880859 -1.306875 12.47011719 -1.59375 13.13085938 C-3.70856718 17.85428359 -3.70856718 17.85428359 -6 19 C-7.02914236 14.57468786 -7.17028705 12.0305331 -5 8 C-3.68133728 6.321702 -2.34919532 4.65385233 -1 3 C-0.67 2.01 -0.34 1.02 0 0 Z " fill="#EDE0C3" transform="translate(311,228)"/>
<path d="M0 0 C0.66 0 1.32 0 2 0 C2.99 6.93 3.98 13.86 5 21 C4.01 21 3.02 21 2 21 C1.34 16.38 0.68 11.76 0 7 C-0.99 7.495 -0.99 7.495 -2 8 C-2.125 5.125 -2.125 5.125 -2 2 C-1.34 1.34 -0.68 0.68 0 0 Z " fill="#F5EFCC" transform="translate(318,142)"/>
<path d="M0 0 C6.24675325 5.90909091 6.24675325 5.90909091 8 10 C7.6875 13.8125 7.6875 13.8125 7 17 C5.66104368 15.33784732 4.32869858 13.67036393 3 12 C2.4225 11.401875 1.845 10.80375 1.25 10.1875 C-0.68373734 6.80345966 -0.19279333 3.85586669 0 0 Z " fill="#D1AE78" transform="translate(288,77)"/>
<path d="M0 0 C-2.64 0.99 -5.28 1.98 -8 3 C-5.69 3.33 -3.38 3.66 -1 4 C-4.67225505 6.38151194 -7.48074262 6.04446852 -11.75 5.625 C-16.87291893 5.17046126 -21.8608382 4.89721676 -27 5 C-27 4.67 -27 4.34 -27 4 C-26.40985107 3.88406494 -25.81970215 3.76812988 -25.21166992 3.64868164 C-22.5365443 3.12197433 -19.86202044 2.59227135 -17.1875 2.0625 C-16.25873047 1.88009766 -15.32996094 1.69769531 -14.37304688 1.50976562 C-13.48037109 1.33251953 -12.58769531 1.15527344 -11.66796875 0.97265625 C-10.84578857 0.81031494 -10.0236084 0.64797363 -9.17651367 0.48071289 C-3.28342564 -0.82085641 -3.28342564 -0.82085641 0 0 Z " fill="#BFB18C" transform="translate(210,323)"/>
<path d="M0 0 C1.65 0.33 3.3 0.66 5 1 C5.33 2.98 5.66 4.96 6 7 C5.01 7.66 4.02 8.32 3 9 C2.26656572 12.06556598 2.26656572 12.06556598 2 15 C1.67 15 1.34 15 1 15 C0.63355422 13.44033408 0.28239138 11.87707349 -0.0625 10.3125 C-0.25972656 9.44238281 -0.45695312 8.57226562 -0.66015625 7.67578125 C-1.02032279 4.83998724 -0.70909969 2.75210018 0 0 Z " fill="#D5CDAC" transform="translate(314,135)"/>
<path d="M0 0 C0.99 0.33 1.98 0.66 3 1 C3.06058594 1.86882812 3.12117188 2.73765625 3.18359375 3.6328125 C3.26738281 4.78523437 3.35117187 5.93765625 3.4375 7.125 C3.51871094 8.26195312 3.59992188 9.39890625 3.68359375 10.5703125 C3.97730965 13.7540478 4.43124313 16.85510907 5 20 C4.34 20 3.68 20 3 20 C2.34 20.66 1.68 21.32 1 22 C0.67 14.74 0.34 7.48 0 0 Z " fill="#F9ECB0" transform="translate(318,164)"/>
<path d="M0 0 C0.5 2 0.5 2 1 4 C1.22042969 4.65871094 1.44085938 5.31742188 1.66796875 5.99609375 C2.09658244 8.58290342 1.50925197 9.75352501 0.3125 12.0625 C-0.18830078 13.06990234 -0.18830078 13.06990234 -0.69921875 14.09765625 C-2.19087764 16.27915139 -3.82235621 17.52837125 -6 19 C-4.12275039 12.62267685 -2.14328358 6.29304541 0 0 Z " fill="#CAB78B" transform="translate(311,218)"/>
<path d="M0 0 C0.33 0 0.66 0 1 0 C0.50839669 5.43533241 -0.87793327 9.2029005 -3.5625 13.9375 C-4.20316406 15.08089844 -4.84382813 16.22429687 -5.50390625 17.40234375 C-5.99761719 18.25957031 -6.49132812 19.11679688 -7 20 C-7.66 20 -8.32 20 -9 20 C-7.55676531 15.26210835 -5.62773267 11.01141849 -3.375 6.625 C-2.88773438 5.66400391 -2.88773438 5.66400391 -2.390625 4.68359375 C-1.59742593 3.12052499 -0.79922969 1.55999378 0 0 Z " fill="#C6B274" transform="translate(27,96)"/>
<path d="M0 0 C0.99 0 1.98 0 3 0 C4.71951285 5.98044406 6.31195504 11.80759538 7 18 C6.34 18 5.68 18 5 18 C4.34838988 16.12699975 3.70397805 14.2514945 3.0625 12.375 C2.52302734 10.80878906 2.52302734 10.80878906 1.97265625 9.2109375 C1.04249877 6.14029714 0.45253692 3.172522 0 0 Z " fill="#DFD1B9" transform="translate(9,207)"/>
<path d="M0 0 C3.3 0 6.6 0 10 0 C10 0.99 10 1.98 10 3 C11.423125 3.4021875 11.423125 3.4021875 12.875 3.8125 C16 5 16 5 18 8 C11.79522136 6.06375702 5.89174281 3.74390859 0 1 C0 0.67 0 0.34 0 0 Z " fill="#CFC29C" transform="translate(93,316)"/>
<path d="M0 0 C0.66 0 1.32 0 2 0 C5 6.5 5 6.5 5 11 C5.99 11.33 6.98 11.66 8 12 C9.1875 15.0625 9.1875 15.0625 10 18 C9.01 18 8.02 18 7 18 C5.82625827 15.56568361 4.66084237 13.12795818 3.5 10.6875 C3.16613281 9.99720703 2.83226562 9.30691406 2.48828125 8.59570312 C0 3.33984375 0 3.33984375 0 0 Z " fill="#E5DFD0" transform="translate(17,232)"/>
<path d="M0 0 C0 0.66 0 1.32 0 2 C-4.56746512 4.25169623 -8.82277227 4.42423979 -13.8125 4.625 C-14.60076172 4.66367187 -15.38902344 4.70234375 -16.20117188 4.7421875 C-18.1337538 4.83588844 -20.06684376 4.91900779 -22 5 C-18.59363053 2.72908702 -15.50162743 2.11523871 -11.5625 1.375 C-10.89412109 1.2409375 -10.22574219 1.106875 -9.53710938 0.96875 C-6.26683498 0.33349353 -3.34797714 0 0 0 Z " fill="#EAE2CC" transform="translate(149,17)"/>
<path d="M0 0 C10.55808656 0.96355353 10.55808656 0.96355353 15 2 C15 2.33 15 2.66 15 3 C9.555 4.485 9.555 4.485 4 6 C3.67 5.01 3.34 4.02 3 3 C2.34 3 1.68 3 1 3 C0.67 2.01 0.34 1.02 0 0 Z " fill="#B59163" transform="translate(129,325)"/>
<path d="M0 0 C3.90894167 4.71768822 6.86264967 9.24559527 9 15 C5.4332051 13.55463213 3.81469101 11.80259054 1.6875 8.625 C1.15511719 7.85414063 0.62273438 7.08328125 0.07421875 6.2890625 C-1 4 -1 4 -0.66796875 1.7109375 C-0.44753906 1.14632812 -0.22710938 0.58171875 0 0 Z " fill="#EAE5D9" transform="translate(28,252)"/>
<path d="M0 0 C0.33 0 0.66 0 1 0 C1.33 5.61 1.66 11.22 2 17 C0.02 17.99 0.02 17.99 -2 19 C-1.34 12.73 -0.68 6.46 0 0 Z " fill="#CEBD8D" transform="translate(317,185)"/>
<path d="M0 0 C-12.48519362 6.88838269 -12.48519362 6.88838269 -19 6 C-15.89579356 3.93052904 -12.9681325 2.67553856 -9.5 1.3125 C-8.3553125 0.85488281 -7.210625 0.39726562 -6.03125 -0.07421875 C-3 -1 -3 -1 0 0 Z " fill="#5D5D5D" transform="translate(173,197)"/>
<path d="M0 0 C2.12636813 0.28151916 4.25108528 0.57553263 6.375 0.875 C7.55835938 1.03742187 8.74171875 1.19984375 9.9609375 1.3671875 C13 2 13 2 15 4 C12.91695462 4.05418326 10.83350232 4.09287551 8.75 4.125 C7.00976562 4.15980469 7.00976562 4.15980469 5.234375 4.1953125 C2.17213954 4.0103949 0.55797249 3.60823023 -2 2 C-1.34 2 -0.68 2 0 2 C0 1.34 0 0.68 0 0 Z " fill="#ECE9D5" transform="translate(183,17)"/>
<path d="M0 0 C-0.33 0.66 -0.66 1.32 -1 2 C-4.0546875 2.6328125 -4.0546875 2.6328125 -7.875 3.125 C-9.13054687 3.29257812 -10.38609375 3.46015625 -11.6796875 3.6328125 C-15 4 -15 4 -18 4 C-18 3.34 -18 2.68 -18 2 C-16.12612523 1.6603981 -14.25083303 1.32861309 -12.375 1 C-11.33085937 0.814375 -10.28671875 0.62875 -9.2109375 0.4375 C-6.09425135 0.01284203 -3.14069188 -0.07545206 0 0 Z " fill="#EDD6A0" transform="translate(197,327)"/>
<path d="M0 0 C3.91211733 1.15585285 6.8745041 2.35534962 10 5 C5.72306069 6.25792333 3.07539885 5.75983132 -1 4 C-1.33 3.34 -1.66 2.68 -2 2 C-1.34 2 -0.68 2 0 2 C0 1.34 0 0.68 0 0 Z " fill="#B59E58" transform="translate(93,311)"/>
<path d="M0 0 C0.66 0.33 1.32 0.66 2 1 C2.33 1.99 2.66 2.98 3 4 C-3.625 6.125 -3.625 6.125 -7 5 C-7 4.34 -7 3.68 -7 3 C-4.69631264 1.93347808 -2.35981813 0.93578995 0 0 Z " fill="#F4EDC7" transform="translate(222,318)"/>
<path d="M0 0 C9.59453303 2.70615034 9.59453303 2.70615034 13 7 C12.01 7.495 12.01 7.495 11 8 C8.3984375 6.78515625 8.3984375 6.78515625 5.375 5.0625 C4.37210938 4.49660156 3.36921875 3.93070313 2.3359375 3.34765625 C1.56507813 2.90292969 0.79421875 2.45820312 0 2 C0 1.34 0 0.68 0 0 Z " fill="#DAD0AC" transform="translate(227,30)"/>
<path d="M0 0 C-2.10171867 0.8394882 -4.20646625 1.67139656 -6.3125 2.5 C-7.48425781 2.9640625 -8.65601562 3.428125 -9.86328125 3.90625 C-13 5 -13 5 -16 5 C-16 4.34 -16 3.68 -16 3 C-10.7832279 0.07351809 -5.88559324 -1.96186441 0 0 Z " fill="#DBBE90" transform="translate(117,27)"/>
<path d="M0 0 C-0.33 1.32 -0.66 2.64 -1 4 C-1.66 4 -2.32 4 -3 4 C-3.33 5.32 -3.66 6.64 -4 8 C-4.33 7.34 -4.66 6.68 -5 6 C-7.32156597 5.59270772 -9.6568787 5.25561323 -12 5 C-8.45976076 2.63984051 -4.36489861 0 0 0 Z " fill="#C6BD98" transform="translate(230,314)"/>
<path d="M0 0 C0.99 0.33 1.98 0.66 3 1 C0.1065566 6.67114906 -3.33365358 10.68756188 -8 15 C-8 11.24196347 -7.09394816 10.71619113 -4.5625 8.0625 C-2.03939769 5.41706546 -0.57999653 3.65152743 0 0 Z " fill="#E7E0D2" transform="translate(291,265)"/>
<path d="M0 0 C-0.33 1.65 -0.66 3.3 -1 5 C-0.34 5.33 0.32 5.66 1 6 C-5.625 7.25 -5.625 7.25 -9 5 C-7.87926138 4.16094435 -6.75325453 3.32892169 -5.625 2.5 C-4.99851563 2.0359375 -4.37203125 1.571875 -3.7265625 1.09375 C-2 0 -2 0 0 0 Z " fill="#CDBC93" transform="translate(253,301)"/>
<path d="M0 0 C2.85749268 2.85749268 3.99035622 6.11732577 5 10 C4.6875 13 4.6875 13 4 15 C0.57974684 11.57974684 0.04655199 7.28017975 -0.125 2.5625 C-0.08375 1.716875 -0.0425 0.87125 0 0 Z " fill="#E6E1CB" transform="translate(313,122)"/>
<path d="M0 0 C0.66 0.33 1.32 0.66 2 1 C3.37634409 7.99641577 3.37634409 7.99641577 2.0625 11.5 C1.711875 11.995 1.36125 12.49 1 13 C-1.48887372 8.31506124 -0.85687773 5.0555786 0 0 Z " fill="#CFB98A" transform="translate(307,111)"/>
<path d="M0 0 C1.61949011 2.57213134 2.04408751 3.67669159 1.625 6.75 C1.41875 7.4925 1.2125 8.235 1 9 C-3.875 4.25 -3.875 4.25 -5 2 C-3.35 1.34 -1.7 0.68 0 0 Z " fill="#C29964" transform="translate(287,75)"/>
<path d="M0 0 C0.86625 0.3403125 0.86625 0.3403125 1.75 0.6875 C1.75 1.3475 1.75 2.0075 1.75 2.6875 C2.41 2.6875 3.07 2.6875 3.75 2.6875 C3.75 3.3475 3.75 4.0075 3.75 4.6875 C0.45 4.0275 -2.85 3.3675 -6.25 2.6875 C-2.25 -0.3125 -2.25 -0.3125 0 0 Z " fill="#CDB287" transform="translate(128.25,325.3125)"/>
<path d="M0 0 C4.75 1.875 4.75 1.875 7 3 C7 4.32 7 5.64 7 7 C6.01 7.495 6.01 7.495 5 8 C2.27573689 5.64722731 1.1858237 3.37503669 0 0 Z " fill="#C8B575" transform="translate(86,308)"/>
<path d="M0 0 C3.93619738 0.56231391 6.79192446 1.61685817 10 4 C10 4.99 10 5.98 10 7 C5.56541027 5.6062718 3.12621626 3.39417765 0 0 Z " fill="#DDD5B2" transform="translate(68,300)"/>
<path d="M0 0 C0.33 0 0.66 0 1 0 C1.27429625 5.39449293 1.36055646 8.51925805 -2 13 C-3.18771723 9.57056481 -2.80226223 7.62215325 -1.5625 4.25 C-1.27503906 3.45078125 -0.98757812 2.6515625 -0.69140625 1.828125 C-0.46324219 1.22484375 -0.23507812 0.6215625 0 0 Z " fill="#CFBD86" transform="translate(14,125)"/>
<path d="M0 0 C2.1640625 0.36328125 2.1640625 0.36328125 4 1 C2.73427767 2.15147661 1.46222094 3.29599314 0.1875 4.4375 C-0.52019531 5.07558594 -1.22789062 5.71367187 -1.95703125 6.37109375 C-4 8 -4 8 -7 9 C-5.4404735 5.17207132 -3.16368164 2.63640136 0 0 Z " fill="#C7C7C8" transform="translate(148,130)"/>
<path d="M0 0 C2.5 2.3125 2.5 2.3125 5 5 C5 5.99 5 6.98 5 8 C4.67 7.67 4.34 7.34 4 7 C3.34 8.32 2.68 9.64 2 11 C0.19769832 7.17010894 -0.19622241 4.21878192 0 0 Z " fill="#D4B68E" transform="translate(288,77)"/>
<path d="M0 0 C1.01382963 3.6208201 1.49897691 7.27811418 2 11 C1.34 11 0.68 11 0 11 C-0.33 10.34 -0.66 9.68 -1 9 C-1 9.66 -1 10.32 -1 11 C-1.99 11 -2.98 11 -4 11 C-3.52269162 9.5410574 -3.04308958 8.08286504 -2.5625 6.625 C-2.29566406 5.81289062 -2.02882813 5.00078125 -1.75390625 4.1640625 C-1 2 -1 2 0 0 Z " fill="#C3B28A" transform="translate(304,237)"/>
<path d="M0 0 C0 2.97 0 5.94 0 9 C-0.99 9.33 -1.98 9.66 -3 10 C-3 7.03 -3 4.06 -3 1 C-1 0 -1 0 0 0 Z " fill="#BF9031" transform="translate(13,145)"/>
<path d="M0 0 C1.65 1.65 3.3 3.3 5 5 C4.67 5.66 4.34 6.32 4 7 C3.34 6.67 2.68 6.34 2 6 C1.67 7.32 1.34 8.64 1 10 C-0.60725635 6.78548731 -0.05748185 3.56387464 0 0 Z " fill="#DDC59F" transform="translate(295,87)"/>
<path d="M0 0 C0.33 0 0.66 0 1 0 C1.33 3.3 1.66 6.6 2 10 C0.02 10.99 0.02 10.99 -2 12 C-1 3.42857143 -1 3.42857143 0 0 Z " fill="#C6B388" transform="translate(314,206)"/>
<path d="M0 0 C1.27351308 2.54702616 0.80191925 3.4282945 0.0625 6.125 C-0.13214844 6.84945312 -0.32679688 7.57390625 -0.52734375 8.3203125 C-0.68332031 8.87460938 -0.83929688 9.42890625 -1 10 C-1.66 10 -2.32 10 -3 10 C-3.29296875 3.9453125 -3.29296875 3.9453125 -3 2 C-2.01 1.34 -1.02 0.68 0 0 Z " fill="#F1DDAB" transform="translate(318,202)"/>
<path d="M0 0 C1.32 0 2.64 0 4 0 C4 0.66 4 1.32 4 2 C4.969375 2.268125 5.93875 2.53625 6.9375 2.8125 C8.4534375 3.4003125 8.4534375 3.4003125 10 4 C10.33 4.99 10.66 5.98 11 7 C6.89188572 5.55007731 3.53144334 3.54592427 0 1 C0 0.67 0 0.34 0 0 Z " fill="#DED4B7" transform="translate(78,307)"/>
<path d="M0 0 C0 0.99 0 1.98 0 3 C-2.64 3.99 -5.28 4.98 -8 6 C-8 5.01 -8 4.02 -8 3 C-2.25 0 -2.25 0 0 0 Z " fill="#EFE9D2" transform="translate(235,315)"/>
<path d="M0 0 C3.47162014 1.15720671 4.13156927 1.9425679 6 5 C6.6875 7.75 6.6875 7.75 7 10 C3.60582235 6.87378374 1.3937282 4.43458973 0 0 Z " fill="#FAF4B7" transform="translate(38,266)"/>
<path d="M0 0 C-1.11375 0.4125 -2.2275 0.825 -3.375 1.25 C-5.99320695 2.35546516 -6.83493089 2.74880787 -8.4375 5.1875 C-8.7159375 6.0846875 -8.7159375 6.0846875 -9 7 C-9.66 5.35 -10.32 3.7 -11 2 C-3.57142857 -1.57142857 -3.57142857 -1.57142857 0 0 Z " fill="#424343" transform="translate(109,101)"/>
<path d="M0 0 C2 2 2 2 2.125 4.625 C2.08375 5.40875 2.0425 6.1925 2 7 C-2 7 -2 7 -4 6 C-2.68 4.02 -1.36 2.04 0 0 Z " fill="#D1C095" transform="translate(295,255)"/>
<path d="M0 0 C0.99 0.33 1.98 0.66 3 1 C4.1875 4.0625 4.1875 4.0625 5 7 C4.01 7 3.02 7 2 7 C0.5393715 4.35261084 0 3.10551666 0 0 Z " fill="#DED6C7" transform="translate(22,243)"/>
<path d="M0 0 C2.79828356 0.38597015 3.8205884 0.80136573 5.75 2.9375 C7 5 7 5 7 7 C6.01 7 5.02 7 4 7 C2.02 3.535 2.02 3.535 0 0 Z " fill="#FCF7E4" transform="translate(35,267)"/>
<path d="M0 0 C1.11375 0.556875 1.11375 0.556875 2.25 1.125 C-0.93762365 3.25008244 -3.01512223 3.6270163 -6.75 4.125 C-6.75 3.135 -6.75 2.145 -6.75 1.125 C-4.02098495 -0.69434337 -3.21400584 -1.02263822 0 0 Z " fill="#3B3B3C" transform="translate(192.75,178.875)"/>
<path d="M0 0 C1.98 0 3.96 0 6 0 C6 0.99 6 1.98 6 3 C4.02 3 2.04 3 0 3 C0 2.01 0 1.02 0 0 Z " fill="#F8F3C4" transform="translate(175,19)"/>
<path d="M0 0 C4.75 0.875 4.75 0.875 7 2 C7 2.66 7 3.32 7 4 C4.03 3.505 4.03 3.505 1 3 C0.67 2.01 0.34 1.02 0 0 Z " fill="#C79D5E" transform="translate(129,325)"/>
<path d="M0 0 C0.99 0.33 1.98 0.66 3 1 C2.38125 1.5775 1.7625 2.155 1.125 2.75 C-0.81347053 4.80249821 -1.90014249 6.43366582 -3 9 C-3.36923077 3.46153846 -3.36923077 3.46153846 -1.5 1.125 C-1.005 0.75375 -0.51 0.3825 0 0 Z " fill="#C9C9CA" transform="translate(100,184)"/>
<path d="M0 0 C-2.76223278 2.76223278 -5.20706617 2.57856291 -9 3 C-6.07868595 -0.19953443 -4.37453972 -1.45817991 0 0 Z " fill="#F6E7B3" transform="translate(210,324)"/>
<path d="M0 0 C2 1 2 1 4 4 C1 4 1 4 -1 3 C-1 3.66 -1 4.32 -1 5 C-1.66 4.67 -2.32 4.34 -3 4 C-2.67 3.01 -2.34 2.02 -2 1 C-1.34 0.67 -0.68 0.34 0 0 Z " fill="#D2C29A" transform="translate(259,296)"/>
<path d="M0 0 C0.99 0.33 1.98 0.66 3 1 C2.34 3.31 1.68 5.62 1 8 C0.67 8 0.34 8 0 8 C0 5.36 0 2.72 0 0 Z " fill="#E7E3DA" transform="translate(316,212)"/>
<path d="M0 0 C0.66 0 1.32 0 2 0 C3.60080151 4.00200378 2.29279692 7.04556236 1 11 C0.67 11 0.34 11 0 11 C0 7.37 0 3.74 0 0 Z " fill="#E5DCAB" transform="translate(315,139)"/>
</svg>
